<svg width="93" height="29" viewBox="0 0 93 29" fill="none" xmlns="http://www.w3.org/2000/svg">
<path d="M7.3249 28.3838C7.09019 28.3838 6.86115 28.381 6.62828 28.3762C6.14587 28.3705 5.66458 28.3321 5.18837 28.2613C4.74433 28.1913 4.31417 28.0612 3.91209 27.8752C3.51369 27.6907 3.15032 27.4489 2.8359 27.1588C2.51693 26.8722 2.25137 26.5398 2.04974 26.1748C1.8459 25.8073 1.70483 25.4135 1.63144 25.007C1.55219 24.5702 1.50931 24.1285 1.50318 23.6857C1.49829 23.5371 1.4919 23.0423 1.4919 23.0423V6.76401C1.4919 6.76401 1.49871 6.27679 1.50321 6.13365C1.50909 5.6916 1.55172 5.2506 1.63073 4.81446C1.70425 4.40682 1.84544 4.01185 2.04939 3.64323C2.25027 3.27843 2.51436 2.94576 2.83141 2.65813C3.14811 2.36777 3.51264 2.12464 3.91171 1.93763C4.31287 1.75222 4.74222 1.62301 5.18536 1.55433C5.66313 1.48285 6.14609 1.44421 6.63017 1.43872L7.32528 1.43012H86.4938L87.1972 1.43907C87.6769 1.44428 88.1554 1.48258 88.6288 1.55364C89.0764 1.62318 89.5103 1.75329 89.916 1.93969C90.7155 2.31658 91.366 2.91286 91.7764 3.64495C91.9771 4.01103 92.1161 4.40277 92.1887 4.80689C92.2687 5.24661 92.3134 5.69108 92.3226 6.13675C92.3248 6.33632 92.3248 6.55068 92.3248 6.76401C92.3309 7.02826 92.3309 7.27978 92.3309 7.53336V22.2812C92.3309 22.5372 92.3309 22.787 92.3248 23.0388C92.3248 23.268 92.3248 23.4779 92.3218 23.694C92.3128 24.1317 92.2688 24.5682 92.1902 25.0001C92.1183 25.4095 91.978 25.8064 91.7742 26.1769C91.5711 26.538 91.3071 26.8675 90.9918 27.1533C90.6771 27.4449 90.3131 27.6882 89.9138 27.8739C89.5092 28.0613 89.076 28.1919 88.6288 28.2613C88.1526 28.3324 87.6713 28.3709 87.1889 28.3762C86.9632 28.381 86.727 28.3838 86.4976 28.3838L85.6625 28.3852L7.3249 28.3838Z" fill="black" fill-opacity="0.1"/>
<path d="M19.9002 15.1188C19.9085 14.5307 20.0793 13.954 20.3967 13.4424C20.7141 12.9309 21.1678 12.5011 21.7156 12.193C21.3676 11.7384 20.9085 11.3642 20.3748 11.1003C19.8411 10.8364 19.2474 10.6899 18.641 10.6725C17.3474 10.5483 16.0933 11.3806 15.4341 11.3806C14.7621 11.3806 13.7472 10.6849 12.6543 10.7054C11.9473 10.7263 11.2584 10.9144 10.6545 11.2512C10.0506 11.5881 9.55246 12.0623 9.20852 12.6277C7.71865 14.9872 8.82996 18.4549 10.2571 20.3622C10.9712 21.2961 11.8057 22.3394 12.8976 22.3024C13.9662 22.2618 14.3652 21.6791 15.655 21.6791C16.9329 21.6791 17.3073 22.3024 18.4214 22.2789C19.568 22.2618 20.2904 21.3408 20.9794 20.398C21.4924 19.7325 21.8872 18.997 22.1491 18.2188C21.483 17.9611 20.9145 17.5297 20.5146 16.9784C20.1147 16.4272 19.901 15.7804 19.9002 15.1188Z" fill="white"/>
<path d="M17.7959 9.4182C18.4211 8.73171 18.7291 7.84933 18.6545 6.95847C17.6994 7.05023 16.8171 7.46779 16.1835 8.12794C15.8737 8.45045 15.6365 8.82564 15.4853 9.23207C15.3341 9.6385 15.272 10.0682 15.3024 10.4966C15.7802 10.5011 16.2528 10.4064 16.6847 10.2196C17.1166 10.0328 17.4966 9.75879 17.7959 9.4182Z" fill="white"/>
<path d="M33.4072 19.938H29.7608L28.8851 22.3032H27.3407L30.7945 13.5526H32.3991L35.8529 22.3032H34.2821L33.4072 19.938ZM30.1385 18.8466H33.0288L31.604 15.0081H31.5641L30.1385 18.8466Z" fill="white"/>
<path d="M43.312 19.1137C43.312 21.0962 42.152 22.37 40.4014 22.37C39.9579 22.3912 39.5169 22.2978 39.1288 22.1004C38.7407 21.903 38.4212 21.6096 38.2069 21.2538H38.1738V24.4138H36.7421V15.9234H38.1279V16.9845H38.1542C38.3784 16.6304 38.7033 16.3386 39.0943 16.14C39.4854 15.9413 39.928 15.8434 40.375 15.8566C42.1452 15.8566 43.312 17.1366 43.312 19.1137ZM41.8405 19.1137C41.8405 17.822 41.1108 16.9728 39.9974 16.9728C38.9035 16.9728 38.1678 17.8399 38.1678 19.1137C38.1678 20.3991 38.9035 21.26 39.9974 21.26C41.1108 21.26 41.8405 20.417 41.8405 19.1137Z" fill="white"/>
<path d="M50.9885 19.1137C50.9885 21.0962 49.8285 22.37 48.0779 22.37C47.6344 22.3912 47.1934 22.2978 46.8053 22.1004C46.4172 21.903 46.0977 21.6096 45.8834 21.2538H45.8503V24.4138H44.4186V15.9234H45.8044V16.9845H45.8307C46.0548 16.6304 46.3797 16.3386 46.7708 16.14C47.1618 15.9413 47.6044 15.8434 48.0515 15.8566C49.8217 15.8566 50.9885 17.1366 50.9885 19.1137ZM49.517 19.1137C49.517 17.822 48.7873 16.9728 47.6739 16.9728C46.58 16.9728 45.8443 17.8399 45.8443 19.1137C45.8443 20.3991 46.58 21.26 47.6739 21.26C48.7873 21.26 49.517 20.417 49.517 19.1137H49.517Z" fill="white"/>
<path d="M56.062 19.8651C56.1681 20.7329 57.0897 21.3026 58.349 21.3026C59.5557 21.3026 60.4239 20.7328 60.4239 19.9504C60.4239 19.2712 59.9003 18.8645 58.6605 18.5858L57.4207 18.3126C55.6641 17.9245 54.8486 17.173 54.8486 15.9536C54.8486 14.4438 56.287 13.4067 58.3295 13.4067C60.3509 13.4067 61.7367 14.4438 61.7833 15.9536H60.3381C60.2516 15.0803 59.4624 14.5532 58.3091 14.5532C57.1559 14.5532 56.3667 15.0865 56.3667 15.8628C56.3667 16.4814 56.8708 16.8455 58.1038 17.1241L59.1577 17.3609C61.1205 17.7854 61.936 18.5067 61.936 19.7866C61.936 21.4237 60.5104 22.4491 58.2429 22.4491C56.1214 22.4491 54.6891 21.4478 54.5965 19.865L56.062 19.8651Z" fill="white"/>
<path d="M65.0257 14.4135V15.9233H66.352V16.9604H65.0257V20.4776C65.0257 21.0239 65.2913 21.2786 65.8743 21.2786C66.0318 21.2761 66.189 21.2659 66.3452 21.2483V22.2791C66.0831 22.3239 65.8167 22.3442 65.5501 22.3397C64.138 22.3397 63.5873 21.8545 63.5873 20.6172V16.9604H62.5732V15.9233H63.5873V14.4135H65.0257Z" fill="white"/>
<path d="M67.1201 19.1136C67.1201 17.1063 68.4126 15.8449 70.428 15.8449C72.4502 15.8449 73.7366 17.1063 73.7366 19.1136C73.7366 21.1265 72.457 22.3824 70.428 22.3824C68.3998 22.3824 67.1201 21.1265 67.1201 19.1136ZM72.2779 19.1136C72.2779 17.7366 71.5881 16.9239 70.428 16.9239C69.268 16.9239 68.5789 17.7428 68.5789 19.1136C68.5789 20.4961 69.268 21.3027 70.428 21.3027C71.5881 21.3027 72.2779 20.4961 72.2779 19.1136H72.2779Z" fill="white"/>
<path d="M74.917 15.9233H76.2824V17.0092H76.3155C76.4079 16.6701 76.6251 16.3704 76.9306 16.1605C77.2361 15.9506 77.6113 15.8432 77.9932 15.8566C78.1581 15.8561 78.3227 15.8724 78.4837 15.9054V17.1304C78.2754 17.0721 78.0581 17.0454 77.8404 17.0512C77.6324 17.0435 77.4251 17.0771 77.2326 17.1496C77.0402 17.2221 76.8671 17.3318 76.7254 17.4712C76.5837 17.6107 76.4766 17.7765 76.4116 17.9574C76.3465 18.1383 76.3251 18.3299 76.3486 18.5191V22.3032H74.917L74.917 15.9233Z" fill="white"/>
<path d="M85.0843 20.4294C84.8917 21.5875 83.6587 22.3824 82.0811 22.3824C80.0522 22.3824 78.7928 21.1389 78.7928 19.1439C78.7928 17.1428 80.059 15.8449 82.021 15.8449C83.9506 15.8449 85.1641 17.0574 85.1641 18.9918V19.4405H80.238V19.5196C80.2153 19.7544 80.2474 19.991 80.3323 20.2135C80.4172 20.4361 80.5528 20.6396 80.7303 20.8105C80.9077 20.9814 81.1229 21.1158 81.3615 21.2049C81.6002 21.2939 81.8567 21.3354 82.1143 21.3267C82.4526 21.3557 82.7921 21.2841 83.0823 21.1224C83.3725 20.9607 83.5979 20.7176 83.7249 20.4294L85.0843 20.4294ZM80.2448 18.5253H83.7317C83.7445 18.3141 83.7096 18.1029 83.6289 17.9047C83.5483 17.7066 83.4237 17.5258 83.2631 17.3737C83.1025 17.2217 82.9092 17.1017 82.6954 17.0212C82.4817 16.9407 82.2521 16.9015 82.021 16.906C81.7878 16.9048 81.5567 16.9457 81.341 17.0266C81.1253 17.1074 80.9292 17.2266 80.764 17.3771C80.5989 17.5277 80.468 17.7066 80.3789 17.9037C80.2897 18.1007 80.2442 18.312 80.2448 18.5253V18.5253Z" fill="white"/>
<path d="M31.9647 7.98938C32.2326 8.03722 32.4598 8.17832 32.6464 8.4127C32.8329 8.64708 32.9262 8.91255 32.9262 9.20911C32.9262 9.46262 32.8592 9.69221 32.7253 9.89789C32.5961 10.0988 32.4072 10.259 32.1585 10.3786C31.9097 10.4934 31.6203 10.5508 31.2903 10.5508H29.2957V5.56428H31.197C31.5366 5.56428 31.8284 5.62168 32.0724 5.73648C32.3163 5.85128 32.5005 6.00673 32.6248 6.20284C32.7492 6.39417 32.8114 6.60942 32.8114 6.84858C32.8114 7.13558 32.7348 7.37474 32.5818 7.56607C32.4287 7.7574 32.223 7.8985 31.9647 7.98938ZM30.1136 7.65934H31.1253C31.3931 7.65934 31.6012 7.59955 31.7495 7.47997C31.9026 7.3556 31.9791 7.17862 31.9791 6.94903C31.9791 6.72422 31.9026 6.54963 31.7495 6.42526C31.6012 6.29612 31.3931 6.23154 31.1253 6.23154H30.1136V7.65934ZM31.2186 9.88354C31.496 9.88354 31.7136 9.81658 31.8715 9.68265C32.0293 9.54872 32.1082 9.36217 32.1082 9.12301C32.1082 8.87906 32.0245 8.68534 31.8571 8.54185C31.6897 8.39835 31.4673 8.3266 31.1899 8.3266H30.1136V9.88354H31.2186Z" fill="white"/>
<path d="M33.5424 8.5562C33.5424 8.15919 33.6237 7.80762 33.7863 7.50149C33.9537 7.19537 34.1785 6.9586 34.4607 6.79118C34.7477 6.61899 35.0634 6.53289 35.4078 6.53289C35.7187 6.53289 35.989 6.59507 36.2186 6.71943C36.453 6.83901 36.6395 6.98969 36.7782 7.17145V6.59746H37.6033V10.5508H36.7782V9.96247C36.6395 10.149 36.4506 10.3045 36.2114 10.4288C35.9722 10.5532 35.6996 10.6154 35.3935 10.6154C35.0539 10.6154 34.743 10.5293 34.4607 10.3571C34.1785 10.1801 33.9537 9.93616 33.7863 9.62525C33.6237 9.30956 33.5424 8.9532 33.5424 8.5562ZM36.7782 8.57055C36.7782 8.2979 36.7208 8.06113 36.606 7.86024C36.496 7.65934 36.3501 7.50628 36.1684 7.40105C35.9866 7.29581 35.7905 7.2432 35.58 7.2432C35.3696 7.2432 35.1734 7.29581 34.9917 7.40105C34.8099 7.50149 34.6616 7.65216 34.5468 7.85306C34.4368 8.04917 34.3818 8.28355 34.3818 8.5562C34.3818 8.82884 34.4368 9.068 34.5468 9.27368C34.6616 9.47936 34.8099 9.63721 34.9917 9.74722C35.1782 9.85245 35.3743 9.90507 35.58 9.90507C35.7905 9.90507 35.9866 9.85245 36.1684 9.74722C36.3501 9.64199 36.496 9.48893 36.606 9.28803C36.7208 9.08235 36.7782 8.84319 36.7782 8.57055Z" fill="white"/>
<path d="M39.0938 6.0737C38.9455 6.0737 38.8212 6.02347 38.7207 5.92303C38.6203 5.82258 38.57 5.69821 38.57 5.54993C38.57 5.40165 38.6203 5.27729 38.7207 5.17684C38.8212 5.07639 38.9455 5.02617 39.0938 5.02617C39.2373 5.02617 39.3593 5.07639 39.4597 5.17684C39.5602 5.27729 39.6104 5.40165 39.6104 5.54993C39.6104 5.69821 39.5602 5.82258 39.4597 5.92303C39.3593 6.02347 39.2373 6.0737 39.0938 6.0737ZM39.4956 6.59746V10.5508H38.6777V6.59746H39.4956Z" fill="white"/>
<path d="M42.2627 8.54902L43.5398 10.5508H42.6143L41.7605 9.20911L40.9569 10.5508H40.1031L41.3802 8.60642L40.1031 6.59746H41.0287L41.8825 7.93916L42.686 6.59746H43.5398L42.2627 8.54902Z" fill="white"/>
<path d="M43.8772 8.5562C43.8772 8.15919 43.9585 7.80762 44.1212 7.50149C44.2886 7.19537 44.5134 6.9586 44.7956 6.79118C45.0826 6.61899 45.3983 6.53289 45.7427 6.53289C46.0536 6.53289 46.3239 6.59507 46.5535 6.71943C46.7878 6.83901 46.9744 6.98969 47.1131 7.17145V6.59746H47.9382V10.5508H47.1131V9.96247C46.9744 10.149 46.7854 10.3045 46.5463 10.4288C46.3071 10.5532 46.0345 10.6154 45.7283 10.6154C45.3887 10.6154 45.0778 10.5293 44.7956 10.3571C44.5134 10.1801 44.2886 9.93616 44.1212 9.62525C43.9585 9.30956 43.8772 8.9532 43.8772 8.5562ZM47.1131 8.57055C47.1131 8.2979 47.0557 8.06113 46.9409 7.86024C46.8309 7.65934 46.685 7.50628 46.5032 7.40105C46.3215 7.29581 46.1254 7.2432 45.9149 7.2432C45.7044 7.2432 45.5083 7.29581 45.3266 7.40105C45.1448 7.50149 44.9965 7.65216 44.8817 7.85306C44.7717 8.04917 44.7167 8.28355 44.7167 8.5562C44.7167 8.82884 44.7717 9.068 44.8817 9.27368C44.9965 9.47936 45.1448 9.63721 45.3266 9.74722C45.5131 9.85245 45.7092 9.90507 45.9149 9.90507C46.1254 9.90507 46.3215 9.85245 46.5032 9.74722C46.685 9.64199 46.8309 9.48893 46.9409 9.28803C47.0557 9.08235 47.1131 8.84319 47.1131 8.57055Z" fill="white"/>
<path d="M49.8305 7.17145C49.95 6.97055 50.1079 6.8151 50.304 6.70508C50.5049 6.59029 50.7417 6.53289 51.0143 6.53289V7.37952H50.8062C50.4858 7.37952 50.2418 7.46084 50.0744 7.62347C49.9118 7.7861 49.8305 8.06831 49.8305 8.4701V10.5508H49.0125V6.59746H49.8305V7.17145Z" fill="white"/>
<path d="M55.6245 6.53289C55.9355 6.53289 56.2129 6.59746 56.4568 6.72661C56.7056 6.85576 56.8993 7.04709 57.038 7.3006C57.1767 7.55411 57.2461 7.86024 57.2461 8.21898V10.5508H56.4353V8.34095C56.4353 7.98699 56.3468 7.71674 56.1698 7.53019C55.9928 7.33886 55.7513 7.2432 55.4452 7.2432C55.139 7.2432 54.8951 7.33886 54.7133 7.53019C54.5364 7.71674 54.4479 7.98699 54.4479 8.34095V10.5508H53.6299V6.59746H54.4479V7.04948C54.5818 6.88685 54.7516 6.76009 54.9573 6.66921C55.1677 6.57833 55.3902 6.53289 55.6245 6.53289Z" fill="white"/>
<path d="M58.0167 8.5562C58.0167 8.15919 58.0981 7.80762 58.2607 7.50149C58.4281 7.19537 58.6529 6.9586 58.9351 6.79118C59.2221 6.61899 59.5378 6.53289 59.8822 6.53289C60.1931 6.53289 60.4634 6.59507 60.693 6.71943C60.9273 6.83901 61.1139 6.98969 61.2526 7.17145V6.59746H62.0777V10.5508H61.2526V9.96247C61.1139 10.149 60.9249 10.3045 60.6858 10.4288C60.4466 10.5532 60.174 10.6154 59.8678 10.6154C59.5282 10.6154 59.2173 10.5293 58.9351 10.3571C58.6529 10.1801 58.4281 9.93616 58.2607 9.62525C58.0981 9.30956 58.0167 8.9532 58.0167 8.5562ZM61.2526 8.57055C61.2526 8.2979 61.1952 8.06113 61.0804 7.86024C60.9704 7.65934 60.8245 7.50628 60.6427 7.40105C60.461 7.29581 60.2649 7.2432 60.0544 7.2432C59.8439 7.2432 59.6478 7.29581 59.4661 7.40105C59.2843 7.50149 59.136 7.65216 59.0212 7.85306C58.9112 8.04917 58.8562 8.28355 58.8562 8.5562C58.8562 8.82884 58.9112 9.068 59.0212 9.27368C59.136 9.47936 59.2843 9.63721 59.4661 9.74722C59.6526 9.85245 59.8487 9.90507 60.0544 9.90507C60.2649 9.90507 60.461 9.85245 60.6427 9.74722C60.8245 9.64199 60.9704 9.48893 61.0804 9.28803C61.1952 9.08235 61.2526 8.84319 61.2526 8.57055Z" fill="white"/>
</svg>
