<svg width="319" height="20" viewBox="0 0 319 20" fill="none" xmlns="http://www.w3.org/2000/svg">
<path d="M3.46172 12C3.46172 10.6267 3.76839 9.4 4.38172 8.32C5.00839 7.22667 5.85505 6.38 6.92172 5.78C8.00172 5.16667 9.20839 4.86 10.5417 4.86C12.1017 4.86 13.4684 5.26 14.6417 6.06C15.8151 6.86 16.6351 7.96667 17.1017 9.38H13.8817C13.5617 8.71333 13.1084 8.21333 12.5217 7.88C11.9484 7.54667 11.2817 7.38 10.5217 7.38C9.70839 7.38 8.98172 7.57333 8.34172 7.96C7.71505 8.33333 7.22172 8.86667 6.86172 9.56C6.51505 10.2533 6.34172 11.0667 6.34172 12C6.34172 12.92 6.51505 13.7333 6.86172 14.44C7.22172 15.1333 7.71505 15.6733 8.34172 16.06C8.98172 16.4333 9.70839 16.62 10.5217 16.62C11.2817 16.62 11.9484 16.4533 12.5217 16.12C13.1084 15.7733 13.5617 15.2667 13.8817 14.6H17.1017C16.6351 16.0267 15.8151 17.14 14.6417 17.94C13.4817 18.7267 12.1151 19.12 10.5417 19.12C9.20839 19.12 8.00172 18.82 6.92172 18.22C5.85505 17.6067 5.00839 16.76 4.38172 15.68C3.76839 14.6 3.46172 13.3733 3.46172 12ZM26.6933 19L23.6133 13.56H22.2933V19H19.4933V5.04H24.7333C25.8133 5.04 26.7333 5.23333 27.4933 5.62C28.2533 5.99333 28.8199 6.50667 29.1933 7.16C29.5799 7.8 29.7733 8.52 29.7733 9.32C29.7733 10.24 29.5066 11.0733 28.9733 11.82C28.4399 12.5533 27.6466 13.06 26.5933 13.34L29.9333 19H26.6933ZM22.2933 11.46H24.6333C25.3933 11.46 25.9599 11.28 26.3333 10.92C26.7066 10.5467 26.8933 10.0333 26.8933 9.38C26.8933 8.74 26.7066 8.24667 26.3333 7.9C25.9599 7.54 25.3933 7.36 24.6333 7.36H22.2933V11.46ZM35.1058 5.04V19H32.3058V5.04H35.1058ZM46.4322 16.34H40.8722L39.9522 19H37.0122L42.0322 5.02H45.2922L50.3122 19H47.3522L46.4322 16.34ZM45.6722 14.1L43.6522 8.26L41.6322 14.1H45.6722ZM64.1286 19H61.3286L54.9886 9.42V19H52.1886V5.02H54.9886L61.3286 14.62V5.02H64.1286V19ZM71.7756 5.04C73.2423 5.04 74.529 5.32667 75.6356 5.9C76.7556 6.47333 77.6156 7.29333 78.2156 8.36C78.829 9.41333 79.1356 10.64 79.1356 12.04C79.1356 13.44 78.829 14.6667 78.2156 15.72C77.6156 16.76 76.7556 17.5667 75.6356 18.14C74.529 18.7133 73.2423 19 71.7756 19H66.8956V5.04H71.7756ZM71.6756 16.62C73.1423 16.62 74.2756 16.22 75.0756 15.42C75.8756 14.62 76.2756 13.4933 76.2756 12.04C76.2756 10.5867 75.8756 9.45333 75.0756 8.64C74.2756 7.81333 73.1423 7.4 71.6756 7.4H69.6956V16.62H71.6756ZM87.7116 19.14C86.4049 19.14 85.2049 18.8333 84.1116 18.22C83.0182 17.6067 82.1516 16.76 81.5116 15.68C80.8716 14.5867 80.5516 13.3533 80.5516 11.98C80.5516 10.62 80.8716 9.4 81.5116 8.32C82.1516 7.22667 83.0182 6.37333 84.1116 5.76C85.2049 5.14667 86.4049 4.84 87.7116 4.84C89.0316 4.84 90.2316 5.14667 91.3116 5.76C92.4049 6.37333 93.2649 7.22667 93.8916 8.32C94.5316 9.4 94.8516 10.62 94.8516 11.98C94.8516 13.3533 94.5316 14.5867 93.8916 15.68C93.2649 16.76 92.4049 17.6067 91.3116 18.22C90.2182 18.8333 89.0182 19.14 87.7116 19.14ZM87.7116 16.64C88.5516 16.64 89.2916 16.4533 89.9316 16.08C90.5716 15.6933 91.0716 15.1467 91.4316 14.44C91.7916 13.7333 91.9716 12.9133 91.9716 11.98C91.9716 11.0467 91.7916 10.2333 91.4316 9.54C91.0716 8.83333 90.5716 8.29333 89.9316 7.92C89.2916 7.54667 88.5516 7.36 87.7116 7.36C86.8716 7.36 86.1249 7.54667 85.4716 7.92C84.8316 8.29333 84.3316 8.83333 83.9716 9.54C83.6116 10.2333 83.4316 11.0467 83.4316 11.98C83.4316 12.9133 83.6116 13.7333 83.9716 14.44C84.3316 15.1467 84.8316 15.6933 85.4716 16.08C86.1249 16.4533 86.8716 16.64 87.7116 16.64ZM113.28 5.04V19H110.48V13.06H104.5V19H101.7V5.04H104.5V10.78H110.48V5.04H113.28ZM122.516 19.14C121.21 19.14 120.01 18.8333 118.916 18.22C117.823 17.6067 116.956 16.76 116.316 15.68C115.676 14.5867 115.356 13.3533 115.356 11.98C115.356 10.62 115.676 9.4 116.316 8.32C116.956 7.22667 117.823 6.37333 118.916 5.76C120.01 5.14667 121.21 4.84 122.516 4.84C123.836 4.84 125.036 5.14667 126.116 5.76C127.21 6.37333 128.07 7.22667 128.696 8.32C129.336 9.4 129.656 10.62 129.656 11.98C129.656 13.3533 129.336 14.5867 128.696 15.68C128.07 16.76 127.21 17.6067 126.116 18.22C125.023 18.8333 123.823 19.14 122.516 19.14ZM122.516 16.64C123.356 16.64 124.096 16.4533 124.736 16.08C125.376 15.6933 125.876 15.1467 126.236 14.44C126.596 13.7333 126.776 12.9133 126.776 11.98C126.776 11.0467 126.596 10.2333 126.236 9.54C125.876 8.83333 125.376 8.29333 124.736 7.92C124.096 7.54667 123.356 7.36 122.516 7.36C121.676 7.36 120.93 7.54667 120.276 7.92C119.636 8.29333 119.136 8.83333 118.776 9.54C118.416 10.2333 118.236 11.0467 118.236 11.98C118.236 12.9133 118.416 13.7333 118.776 14.44C119.136 15.1467 119.636 15.6933 120.276 16.08C120.93 16.4533 121.676 16.64 122.516 16.64ZM139.879 5.04V14.84C139.879 16.2 139.486 17.26 138.699 18.02C137.913 18.7667 136.859 19.14 135.539 19.14C134.206 19.14 133.126 18.7533 132.299 17.98C131.486 17.2067 131.079 16.1267 131.079 14.74H133.879C133.893 15.34 134.033 15.8067 134.299 16.14C134.579 16.4733 134.979 16.64 135.499 16.64C136.006 16.64 136.393 16.48 136.659 16.16C136.926 15.84 137.059 15.4 137.059 14.84V5.04H139.879ZM145.946 7.3V10.8H150.646V13.02H145.946V16.72H151.246V19H143.146V5.02H151.246V7.3H145.946ZM165.036 19.14C163.729 19.14 162.529 18.8333 161.436 18.22C160.342 17.6067 159.476 16.76 158.836 15.68C158.196 14.5867 157.876 13.3533 157.876 11.98C157.876 10.62 158.196 9.4 158.836 8.32C159.476 7.22667 160.342 6.37333 161.436 5.76C162.529 5.14667 163.729 4.84 165.036 4.84C166.356 4.84 167.556 5.14667 168.636 5.76C169.729 6.37333 170.589 7.22667 171.216 8.32C171.856 9.4 172.176 10.62 172.176 11.98C172.176 13.3533 171.856 14.5867 171.216 15.68C170.589 16.76 169.729 17.6067 168.636 18.22C167.542 18.8333 166.342 19.14 165.036 19.14ZM165.036 16.64C165.876 16.64 166.616 16.4533 167.256 16.08C167.896 15.6933 168.396 15.1467 168.756 14.44C169.116 13.7333 169.296 12.9133 169.296 11.98C169.296 11.0467 169.116 10.2333 168.756 9.54C168.396 8.83333 167.896 8.29333 167.256 7.92C166.616 7.54667 165.876 7.36 165.036 7.36C164.196 7.36 163.449 7.54667 162.796 7.92C162.156 8.29333 161.656 8.83333 161.296 9.54C160.936 10.2333 160.756 11.0467 160.756 11.98C160.756 12.9133 160.936 13.7333 161.296 14.44C161.656 15.1467 162.156 15.6933 162.796 16.08C163.449 16.4533 164.196 16.64 165.036 16.64ZM183.845 19.14C182.871 19.14 181.991 18.9733 181.205 18.64C180.431 18.3067 179.818 17.8267 179.365 17.2C178.911 16.5733 178.678 15.8333 178.665 14.98H181.665C181.705 15.5533 181.905 16.0067 182.265 16.34C182.638 16.6733 183.145 16.84 183.785 16.84C184.438 16.84 184.951 16.6867 185.325 16.38C185.698 16.06 185.885 15.6467 185.885 15.14C185.885 14.7267 185.758 14.3867 185.505 14.12C185.251 13.8533 184.931 13.6467 184.545 13.5C184.171 13.34 183.651 13.1667 182.985 12.98C182.078 12.7133 181.338 12.4533 180.765 12.2C180.205 11.9333 179.718 11.54 179.305 11.02C178.905 10.4867 178.705 9.78 178.705 8.9C178.705 8.07333 178.911 7.35333 179.325 6.74C179.738 6.12667 180.318 5.66 181.065 5.34C181.811 5.00667 182.665 4.84 183.625 4.84C185.065 4.84 186.231 5.19333 187.125 5.9C188.031 6.59333 188.531 7.56667 188.625 8.82H185.545C185.518 8.34 185.311 7.94667 184.925 7.64C184.551 7.32 184.051 7.16 183.425 7.16C182.878 7.16 182.438 7.3 182.105 7.58C181.785 7.86 181.625 8.26667 181.625 8.8C181.625 9.17333 181.745 9.48667 181.985 9.74C182.238 9.98 182.545 10.18 182.905 10.34C183.278 10.4867 183.798 10.66 184.465 10.86C185.371 11.1267 186.111 11.3933 186.685 11.66C187.258 11.9267 187.751 12.3267 188.165 12.86C188.578 13.3933 188.785 14.0933 188.785 14.96C188.785 15.7067 188.591 16.4 188.205 17.04C187.818 17.68 187.251 18.1933 186.505 18.58C185.758 18.9533 184.871 19.14 183.845 19.14ZM194.012 7.3V10.8H198.712V13.02H194.012V16.72H199.312V19H191.212V5.02H199.312V7.3H194.012ZM204.617 5.04V13.68C204.617 14.6267 204.863 15.3533 205.357 15.86C205.85 16.3533 206.543 16.6 207.437 16.6C208.343 16.6 209.043 16.3533 209.537 15.86C210.03 15.3533 210.277 14.6267 210.277 13.68V5.04H213.097V13.66C213.097 14.8467 212.837 15.8533 212.317 16.68C211.81 17.4933 211.123 18.1067 210.257 18.52C209.403 18.9333 208.45 19.14 207.397 19.14C206.357 19.14 205.41 18.9333 204.557 18.52C203.717 18.1067 203.05 17.4933 202.557 16.68C202.063 15.8533 201.817 14.8467 201.817 13.66V5.04H204.617ZM229.128 16.34H223.568L222.648 19H219.708L224.728 5.02H227.988L233.008 19H230.048L229.128 16.34ZM228.368 14.1L226.348 8.26L224.327 14.1H228.368ZM250.104 5.04V19H247.304V9.92L243.564 19H241.444L237.684 9.92V19H234.884V5.04H238.064L242.504 15.42L246.944 5.04H250.104ZM261.432 16.34H255.872L254.952 19H252.012L257.032 5.02H260.292L265.312 19H262.352L261.432 16.34ZM260.672 14.1L258.652 8.26L256.632 14.1H260.672ZM279.129 19H276.329L269.989 9.42V19H267.189V5.02H269.989L276.329 14.62V5.02H279.129V19ZM293.476 5.04V19H290.676V13.06H284.696V19H281.896V5.04H284.696V10.78H290.676V5.04H293.476ZM304.792 16.34H299.232L298.312 19H295.372L300.392 5.02H303.652L308.672 19H305.712L304.792 16.34ZM304.032 14.1L302.012 8.26L299.992 14.1H304.032ZM298.412 3.96C298.532 3.08 298.805 2.42667 299.232 2C299.672 1.56 300.225 1.34 300.892 1.34C301.172 1.34 301.418 1.38667 301.632 1.48C301.845 1.56 302.085 1.68 302.352 1.84C302.752 2.09333 303.085 2.22 303.352 2.22C303.845 2.22 304.132 1.93333 304.212 1.36H305.712C305.592 2.24 305.312 2.9 304.872 3.34C304.445 3.76667 303.898 3.98 303.232 3.98C302.952 3.98 302.705 3.94 302.492 3.86C302.278 3.76667 302.038 3.64 301.772 3.48C301.385 3.21333 301.052 3.08 300.772 3.08C300.278 3.08 299.985 3.37333 299.892 3.96H298.412ZM314.168 4.8L313.848 14.46H311.488L311.148 4.8H314.168ZM312.728 19.14C312.221 19.14 311.801 18.9867 311.468 18.68C311.148 18.36 310.988 17.9667 310.988 17.5C310.988 17.0333 311.148 16.6467 311.468 16.34C311.801 16.02 312.221 15.86 312.728 15.86C313.221 15.86 313.628 16.02 313.948 16.34C314.268 16.6467 314.428 17.0333 314.428 17.5C314.428 17.9667 314.268 18.36 313.948 18.68C313.628 18.9867 313.221 19.14 312.728 19.14Z" fill="white"/>
</svg>
