<svg width="375" height="51" viewBox="0 0 375 51" fill="none" xmlns="http://www.w3.org/2000/svg">
<rect width="375" height="51" fill="#7500FF"/>
<path d="M79.964 25.208C79.964 24.664 80.0893 24.176 80.34 23.744C80.596 23.312 80.94 22.976 81.372 22.736C81.8093 22.4907 82.2866 22.368 82.804 22.368C83.396 22.368 83.9213 22.5147 84.38 22.808C84.844 23.096 85.18 23.5067 85.388 24.04H84.292C84.148 23.7467 83.948 23.528 83.692 23.384C83.436 23.24 83.14 23.168 82.804 23.168C82.436 23.168 82.108 23.2507 81.82 23.416C81.532 23.5813 81.3053 23.8187 81.14 24.128C80.98 24.4373 80.9 24.7973 80.9 25.208C80.9 25.6187 80.98 25.9787 81.14 26.288C81.3053 26.5973 81.532 26.8373 81.82 27.008C82.108 27.1733 82.436 27.256 82.804 27.256C83.14 27.256 83.436 27.184 83.692 27.04C83.948 26.896 84.148 26.6773 84.292 26.384H85.388C85.18 26.9173 84.844 27.328 84.38 27.616C83.9213 27.904 83.396 28.048 82.804 28.048C82.2813 28.048 81.804 27.928 81.372 27.688C80.94 27.4427 80.596 27.104 80.34 26.672C80.0893 26.24 79.964 25.752 79.964 25.208ZM88.3675 28.072C87.9515 28.072 87.5755 27.9787 87.2395 27.792C86.9035 27.6 86.6395 27.3333 86.4475 26.992C86.2555 26.6453 86.1595 26.2453 86.1595 25.792C86.1595 25.344 86.2581 24.9467 86.4555 24.6C86.6528 24.2533 86.9221 23.9867 87.2635 23.8C87.6048 23.6133 87.9861 23.52 88.4075 23.52C88.8288 23.52 89.2101 23.6133 89.5515 23.8C89.8928 23.9867 90.1621 24.2533 90.3595 24.6C90.5568 24.9467 90.6555 25.344 90.6555 25.792C90.6555 26.24 90.5541 26.6373 90.3515 26.984C90.1488 27.3307 89.8715 27.6 89.5195 27.792C89.1728 27.9787 88.7888 28.072 88.3675 28.072ZM88.3675 27.28C88.6021 27.28 88.8208 27.224 89.0235 27.112C89.2315 27 89.3995 26.832 89.5275 26.608C89.6555 26.384 89.7195 26.112 89.7195 25.792C89.7195 25.472 89.6581 25.2027 89.5355 24.984C89.4128 24.76 89.2501 24.592 89.0475 24.48C88.8448 24.368 88.6261 24.312 88.3915 24.312C88.1568 24.312 87.9381 24.368 87.7355 24.48C87.5381 24.592 87.3808 24.76 87.2635 24.984C87.1461 25.2027 87.0875 25.472 87.0875 25.792C87.0875 26.2667 87.2075 26.6347 87.4475 26.896C87.6928 27.152 87.9995 27.28 88.3675 27.28ZM92.469 24.24C92.6237 24.0373 92.8344 23.8667 93.101 23.728C93.3677 23.5893 93.669 23.52 94.005 23.52C94.389 23.52 94.7384 23.616 95.053 23.808C95.373 23.9947 95.6237 24.2587 95.805 24.6C95.9864 24.9413 96.077 25.3333 96.077 25.776C96.077 26.2187 95.9864 26.616 95.805 26.968C95.6237 27.3147 95.373 27.5867 95.053 27.784C94.7384 27.976 94.389 28.072 94.005 28.072C93.669 28.072 93.3704 28.0053 93.109 27.872C92.8477 27.7333 92.6344 27.5627 92.469 27.36V30.096H91.557V23.592H92.469V24.24ZM95.149 25.776C95.149 25.472 95.085 25.2107 94.957 24.992C94.8344 24.768 94.669 24.6 94.461 24.488C94.2584 24.3707 94.0397 24.312 93.805 24.312C93.5757 24.312 93.357 24.3707 93.149 24.488C92.9464 24.6053 92.781 24.776 92.653 25C92.5304 25.224 92.469 25.488 92.469 25.792C92.469 26.096 92.5304 26.3627 92.653 26.592C92.781 26.816 92.9464 26.9867 93.149 27.104C93.357 27.2213 93.5757 27.28 93.805 27.28C94.0397 27.28 94.2584 27.2213 94.461 27.104C94.669 26.9813 94.8344 26.8053 94.957 26.576C95.085 26.3467 95.149 26.08 95.149 25.776ZM100.947 23.592L98.2429 30.072H97.2989L98.1949 27.928L96.4589 23.592H97.4749L98.7149 26.952L100.003 23.592H100.947ZM102.547 24.232C102.68 24.008 102.856 23.8347 103.075 23.712C103.299 23.584 103.563 23.52 103.867 23.52V24.464H103.635C103.278 24.464 103.006 24.5547 102.819 24.736C102.638 24.9173 102.547 25.232 102.547 25.68V28H101.635V23.592H102.547V24.232ZM105.169 23.008C105.004 23.008 104.865 22.952 104.753 22.84C104.641 22.728 104.585 22.5893 104.585 22.424C104.585 22.2587 104.641 22.12 104.753 22.008C104.865 21.896 105.004 21.84 105.169 21.84C105.329 21.84 105.465 21.896 105.577 22.008C105.689 22.12 105.745 22.2587 105.745 22.424C105.745 22.5893 105.689 22.728 105.577 22.84C105.465 22.952 105.329 23.008 105.169 23.008ZM105.617 23.592V28H104.705V23.592H105.617ZM108.591 23.52C108.932 23.52 109.234 23.5893 109.495 23.728C109.762 23.8613 109.97 24.0293 110.119 24.232V23.592H111.039V28.072C111.039 28.4773 110.954 28.8373 110.783 29.152C110.612 29.472 110.364 29.7227 110.039 29.904C109.719 30.0853 109.335 30.176 108.887 30.176C108.29 30.176 107.794 30.0347 107.399 29.752C107.004 29.4747 106.78 29.096 106.727 28.616H107.631C107.7 28.8453 107.847 29.0293 108.071 29.168C108.3 29.312 108.572 29.384 108.887 29.384C109.255 29.384 109.551 29.272 109.775 29.048C110.004 28.824 110.119 28.4987 110.119 28.072V27.336C109.964 27.544 109.754 27.72 109.487 27.864C109.226 28.0027 108.927 28.072 108.591 28.072C108.207 28.072 107.855 27.976 107.535 27.784C107.22 27.5867 106.97 27.3147 106.783 26.968C106.602 26.616 106.511 26.2187 106.511 25.776C106.511 25.3333 106.602 24.9413 106.783 24.6C106.97 24.2587 107.22 23.9947 107.535 23.808C107.855 23.616 108.207 23.52 108.591 23.52ZM110.119 25.792C110.119 25.488 110.055 25.224 109.927 25C109.804 24.776 109.642 24.6053 109.439 24.488C109.236 24.3707 109.018 24.312 108.783 24.312C108.548 24.312 108.33 24.3707 108.127 24.488C107.924 24.6 107.759 24.768 107.631 24.992C107.508 25.2107 107.447 25.472 107.447 25.776C107.447 26.08 107.508 26.3467 107.631 26.576C107.759 26.8053 107.924 26.9813 108.127 27.104C108.335 27.2213 108.554 27.28 108.783 27.28C109.018 27.28 109.236 27.2213 109.439 27.104C109.642 26.9867 109.804 26.816 109.927 26.592C110.055 26.3627 110.119 26.096 110.119 25.792ZM114.517 23.52C114.853 23.52 115.151 23.592 115.413 23.736C115.679 23.88 115.887 24.0933 116.037 24.376C116.191 24.6587 116.269 25 116.269 25.4V28H115.365V25.536C115.365 25.1413 115.266 24.84 115.069 24.632C114.871 24.4187 114.602 24.312 114.261 24.312C113.919 24.312 113.647 24.4187 113.445 24.632C113.247 24.84 113.149 25.1413 113.149 25.536V28H112.237V22.08H113.149V24.104C113.303 23.9173 113.498 23.7733 113.733 23.672C113.973 23.5707 114.234 23.52 114.517 23.52ZM118.496 24.336V26.776C118.496 26.9413 118.533 27.0613 118.608 27.136C118.688 27.2053 118.821 27.24 119.008 27.24H119.568V28H118.848C118.437 28 118.123 27.904 117.904 27.712C117.685 27.52 117.576 27.208 117.576 26.776V24.336H117.056V23.592H117.576V22.496H118.496V23.592H119.568V24.336H118.496ZM125.047 22.368C125.591 22.368 126.073 22.4907 126.495 22.736C126.916 22.976 127.244 23.312 127.479 23.744C127.713 24.176 127.831 24.6667 127.831 25.216C127.831 25.7653 127.713 26.2587 127.479 26.696C127.244 27.128 126.916 27.4667 126.495 27.712C126.073 27.952 125.591 28.072 125.047 28.072C124.503 28.072 124.017 27.952 123.591 27.712C123.169 27.4667 122.841 27.128 122.607 26.696C122.372 26.2587 122.255 25.7653 122.255 25.216C122.255 24.6667 122.372 24.176 122.607 23.744C122.841 23.312 123.169 22.976 123.591 22.736C124.017 22.4907 124.503 22.368 125.047 22.368ZM125.047 22.736C124.561 22.736 124.137 22.8373 123.775 23.04C123.417 23.2427 123.14 23.5333 122.943 23.912C122.751 24.2853 122.655 24.72 122.655 25.216C122.655 25.712 122.751 26.1467 122.943 26.52C123.14 26.8933 123.417 27.184 123.775 27.392C124.137 27.6 124.561 27.704 125.047 27.704C125.527 27.704 125.945 27.6 126.303 27.392C126.665 27.184 126.943 26.8933 127.135 26.52C127.332 26.1467 127.431 25.712 127.431 25.216C127.431 24.72 127.332 24.2853 127.135 23.912C126.943 23.5333 126.668 23.2427 126.311 23.04C125.953 22.8373 125.532 22.736 125.047 22.736ZM125.023 23.376C124.697 23.376 124.401 23.4533 124.135 23.608C123.868 23.7573 123.657 23.9707 123.503 24.248C123.353 24.5253 123.279 24.8453 123.279 25.208C123.279 25.5707 123.356 25.8933 123.511 26.176C123.665 26.4533 123.873 26.6693 124.135 26.824C124.401 26.9733 124.697 27.048 125.023 27.048C125.428 27.048 125.777 26.9413 126.071 26.728C126.364 26.5093 126.561 26.224 126.663 25.872H125.831C125.761 26.0427 125.663 26.1733 125.535 26.264C125.407 26.3547 125.236 26.4 125.023 26.4C124.74 26.4 124.513 26.2987 124.343 26.096C124.172 25.888 124.087 25.592 124.087 25.208C124.087 24.824 124.172 24.5307 124.343 24.328C124.513 24.1253 124.74 24.024 125.023 24.024C125.225 24.024 125.396 24.0693 125.535 24.16C125.679 24.2507 125.777 24.3813 125.831 24.552H126.663C126.561 24.1787 126.367 23.8907 126.079 23.688C125.791 23.48 125.439 23.376 125.023 23.376ZM131.261 26.76C131.773 26.3173 132.176 25.9547 132.469 25.672C132.768 25.384 133.016 25.0853 133.213 24.776C133.411 24.4667 133.509 24.1573 133.509 23.848C133.509 23.528 133.432 23.2773 133.277 23.096C133.128 22.9147 132.891 22.824 132.565 22.824C132.251 22.824 132.005 22.9253 131.829 23.128C131.659 23.3253 131.568 23.592 131.557 23.928H130.677C130.693 23.32 130.875 22.856 131.221 22.536C131.573 22.2107 132.019 22.048 132.557 22.048C133.139 22.048 133.592 22.208 133.917 22.528C134.248 22.848 134.413 23.2747 134.413 23.808C134.413 24.192 134.315 24.5627 134.117 24.92C133.925 25.272 133.693 25.5893 133.421 25.872C133.155 26.1493 132.813 26.472 132.397 26.84L132.037 27.16H134.573V27.92H130.685V27.256L131.261 26.76ZM135.375 25.008C135.375 24.0853 135.529 23.3653 135.839 22.848C136.153 22.3253 136.692 22.064 137.455 22.064C138.217 22.064 138.753 22.3253 139.063 22.848C139.377 23.3653 139.535 24.0853 139.535 25.008C139.535 25.9413 139.377 26.672 139.063 27.2C138.753 27.7227 138.217 27.984 137.455 27.984C136.692 27.984 136.153 27.7227 135.839 27.2C135.529 26.672 135.375 25.9413 135.375 25.008ZM138.639 25.008C138.639 24.576 138.609 24.2107 138.551 23.912C138.497 23.6133 138.385 23.3707 138.215 23.184C138.044 22.992 137.791 22.896 137.455 22.896C137.119 22.896 136.865 22.992 136.695 23.184C136.524 23.3707 136.409 23.6133 136.351 23.912C136.297 24.2107 136.271 24.576 136.271 25.008C136.271 25.456 136.297 25.832 136.351 26.136C136.404 26.44 136.516 26.6853 136.687 26.872C136.863 27.0587 137.119 27.152 137.455 27.152C137.791 27.152 138.044 27.0587 138.215 26.872C138.391 26.6853 138.505 26.44 138.559 26.136C138.612 25.832 138.639 25.456 138.639 25.008ZM141.004 26.76C141.516 26.3173 141.918 25.9547 142.212 25.672C142.51 25.384 142.758 25.0853 142.956 24.776C143.153 24.4667 143.252 24.1573 143.252 23.848C143.252 23.528 143.174 23.2773 143.02 23.096C142.87 22.9147 142.633 22.824 142.308 22.824C141.993 22.824 141.748 22.9253 141.572 23.128C141.401 23.3253 141.31 23.592 141.3 23.928H140.42C140.436 23.32 140.617 22.856 140.964 22.536C141.316 22.2107 141.761 22.048 142.3 22.048C142.881 22.048 143.334 22.208 143.66 22.528C143.99 22.848 144.156 23.2747 144.156 23.808C144.156 24.192 144.057 24.5627 143.86 24.92C143.668 25.272 143.436 25.5893 143.164 25.872C142.897 26.1493 142.556 26.472 142.14 26.84L141.78 27.16H144.316V27.92H140.428V27.256L141.004 26.76ZM145.101 23.608C145.133 23.112 145.322 22.7253 145.669 22.448C146.021 22.1707 146.469 22.032 147.013 22.032C147.386 22.032 147.709 22.0987 147.981 22.232C148.253 22.3653 148.458 22.5467 148.597 22.776C148.735 23.0053 148.805 23.264 148.805 23.552C148.805 23.8827 148.717 24.1653 148.541 24.4C148.365 24.6347 148.154 24.792 147.909 24.872V24.904C148.223 25 148.469 25.176 148.645 25.432C148.821 25.6827 148.909 26.0053 148.909 26.4C148.909 26.7147 148.837 26.9947 148.693 27.24C148.549 27.4853 148.335 27.68 148.053 27.824C147.77 27.9627 147.431 28.032 147.037 28.032C146.461 28.032 145.986 27.8853 145.613 27.592C145.245 27.2933 145.047 26.8667 145.021 26.312H145.901C145.922 26.5947 146.031 26.8267 146.229 27.008C146.426 27.184 146.693 27.272 147.029 27.272C147.354 27.272 147.605 27.184 147.781 27.008C147.957 26.8267 148.045 26.5947 148.045 26.312C148.045 25.9387 147.925 25.6747 147.685 25.52C147.45 25.36 147.087 25.28 146.597 25.28H146.389V24.528H146.605C147.037 24.5227 147.365 24.4507 147.589 24.312C147.818 24.1733 147.933 23.9547 147.933 23.656C147.933 23.4 147.85 23.1973 147.685 23.048C147.519 22.8933 147.285 22.816 146.981 22.816C146.682 22.816 146.45 22.8933 146.285 23.048C146.119 23.1973 146.021 23.384 145.989 23.608H145.101ZM156.441 24.72V25.488H152.161V24.72H156.441ZM161.623 22.44C162.215 22.44 162.732 22.5547 163.175 22.784C163.623 23.008 163.967 23.3333 164.207 23.76C164.452 24.1813 164.575 24.6747 164.575 25.24C164.575 25.8053 164.452 26.296 164.207 26.712C163.967 27.128 163.623 27.448 163.175 27.672C162.732 27.8907 162.215 28 161.623 28H159.807V22.44H161.623ZM161.623 27.256C162.274 27.256 162.772 27.08 163.119 26.728C163.466 26.376 163.639 25.88 163.639 25.24C163.639 24.5947 163.466 24.0907 163.119 23.728C162.772 23.3653 162.274 23.184 161.623 23.184H160.719V27.256H161.623ZM169.519 25.688C169.519 25.8533 169.508 26.0027 169.487 26.136H166.119C166.146 26.488 166.276 26.7707 166.511 26.984C166.746 27.1973 167.034 27.304 167.375 27.304C167.866 27.304 168.212 27.0987 168.415 26.688H169.399C169.266 27.0933 169.023 27.4267 168.671 27.688C168.324 27.944 167.892 28.072 167.375 28.072C166.954 28.072 166.575 27.9787 166.239 27.792C165.908 27.6 165.647 27.3333 165.455 26.992C165.268 26.6453 165.175 26.2453 165.175 25.792C165.175 25.3387 165.266 24.9413 165.447 24.6C165.634 24.2533 165.892 23.9867 166.223 23.8C166.559 23.6133 166.943 23.52 167.375 23.52C167.791 23.52 168.162 23.6107 168.487 23.792C168.812 23.9733 169.066 24.2293 169.247 24.56C169.428 24.8853 169.519 25.2613 169.519 25.688ZM168.567 25.4C168.562 25.064 168.442 24.7947 168.207 24.592C167.972 24.3893 167.682 24.288 167.335 24.288C167.02 24.288 166.751 24.3893 166.527 24.592C166.303 24.7893 166.17 25.0587 166.127 25.4H168.567ZM172.016 28.072C171.67 28.072 171.358 28.0107 171.08 27.888C170.808 27.76 170.592 27.5893 170.432 27.376C170.272 27.1573 170.187 26.9147 170.176 26.648H171.12C171.136 26.8347 171.224 26.992 171.384 27.12C171.55 27.2427 171.755 27.304 172 27.304C172.256 27.304 172.454 27.256 172.592 27.16C172.736 27.0587 172.808 26.9307 172.808 26.776C172.808 26.6107 172.728 26.488 172.568 26.408C172.414 26.328 172.166 26.24 171.824 26.144C171.494 26.0533 171.224 25.9653 171.016 25.88C170.808 25.7947 170.627 25.664 170.472 25.488C170.323 25.312 170.248 25.08 170.248 24.792C170.248 24.5573 170.318 24.344 170.456 24.152C170.595 23.9547 170.792 23.8 171.048 23.688C171.31 23.576 171.608 23.52 171.944 23.52C172.446 23.52 172.848 23.648 173.152 23.904C173.462 24.1547 173.627 24.4987 173.648 24.936H172.736C172.72 24.7387 172.64 24.5813 172.496 24.464C172.352 24.3467 172.158 24.288 171.912 24.288C171.672 24.288 171.488 24.3333 171.36 24.424C171.232 24.5147 171.168 24.6347 171.168 24.784C171.168 24.9013 171.211 25 171.296 25.08C171.382 25.16 171.486 25.224 171.608 25.272C171.731 25.3147 171.912 25.3707 172.152 25.44C172.472 25.5253 172.734 25.6133 172.936 25.704C173.144 25.7893 173.323 25.9173 173.472 26.088C173.622 26.2587 173.699 26.4853 173.704 26.768C173.704 27.0187 173.635 27.2427 173.496 27.44C173.358 27.6373 173.16 27.792 172.904 27.904C172.654 28.016 172.358 28.072 172.016 28.072ZM178.73 25.688C178.73 25.8533 178.719 26.0027 178.698 26.136H175.33C175.357 26.488 175.487 26.7707 175.722 26.984C175.957 27.1973 176.245 27.304 176.586 27.304C177.077 27.304 177.423 27.0987 177.626 26.688H178.61C178.477 27.0933 178.234 27.4267 177.882 27.688C177.535 27.944 177.103 28.072 176.586 28.072C176.165 28.072 175.786 27.9787 175.45 27.792C175.119 27.6 174.858 27.3333 174.666 26.992C174.479 26.6453 174.386 26.2453 174.386 25.792C174.386 25.3387 174.477 24.9413 174.658 24.6C174.845 24.2533 175.103 23.9867 175.434 23.8C175.77 23.6133 176.154 23.52 176.586 23.52C177.002 23.52 177.373 23.6107 177.698 23.792C178.023 23.9733 178.277 24.2293 178.458 24.56C178.639 24.8853 178.73 25.2613 178.73 25.688ZM177.778 25.4C177.773 25.064 177.653 24.7947 177.418 24.592C177.183 24.3893 176.893 24.288 176.546 24.288C176.231 24.288 175.962 24.3893 175.738 24.592C175.514 24.7893 175.381 25.0587 175.338 25.4H177.778ZM181.851 23.52C182.198 23.52 182.507 23.592 182.779 23.736C183.057 23.88 183.273 24.0933 183.427 24.376C183.582 24.6587 183.659 25 183.659 25.4V28H182.755V25.536C182.755 25.1413 182.657 24.84 182.459 24.632C182.262 24.4187 181.993 24.312 181.651 24.312C181.31 24.312 181.038 24.4187 180.835 24.632C180.638 24.84 180.539 25.1413 180.539 25.536V28H179.627V23.592H180.539V24.096C180.689 23.9147 180.878 23.7733 181.107 23.672C181.342 23.5707 181.59 23.52 181.851 23.52ZM186.527 27.184L187.775 23.592H188.743L187.063 28H185.975L184.303 23.592H185.279L186.527 27.184ZM191.344 28.072C190.928 28.072 190.552 27.9787 190.216 27.792C189.88 27.6 189.616 27.3333 189.424 26.992C189.232 26.6453 189.136 26.2453 189.136 25.792C189.136 25.344 189.235 24.9467 189.432 24.6C189.629 24.2533 189.899 23.9867 190.24 23.8C190.581 23.6133 190.963 23.52 191.384 23.52C191.805 23.52 192.187 23.6133 192.528 23.8C192.869 23.9867 193.139 24.2533 193.336 24.6C193.533 24.9467 193.632 25.344 193.632 25.792C193.632 26.24 193.531 26.6373 193.328 26.984C193.125 27.3307 192.848 27.6 192.496 27.792C192.149 27.9787 191.765 28.072 191.344 28.072ZM191.344 27.28C191.579 27.28 191.797 27.224 192 27.112C192.208 27 192.376 26.832 192.504 26.608C192.632 26.384 192.696 26.112 192.696 25.792C192.696 25.472 192.635 25.2027 192.512 24.984C192.389 24.76 192.227 24.592 192.024 24.48C191.821 24.368 191.603 24.312 191.368 24.312C191.133 24.312 190.915 24.368 190.712 24.48C190.515 24.592 190.357 24.76 190.24 24.984C190.123 25.2027 190.064 25.472 190.064 25.792C190.064 26.2667 190.184 26.6347 190.424 26.896C190.669 27.152 190.976 27.28 191.344 27.28ZM195.446 22.08V28H194.534V22.08H195.446ZM198.347 27.184L199.595 23.592H200.563L198.883 28H197.795L196.123 23.592H197.099L198.347 27.184ZM201.716 23.008C201.551 23.008 201.412 22.952 201.3 22.84C201.188 22.728 201.132 22.5893 201.132 22.424C201.132 22.2587 201.188 22.12 201.3 22.008C201.412 21.896 201.551 21.84 201.716 21.84C201.876 21.84 202.012 21.896 202.124 22.008C202.236 22.12 202.292 22.2587 202.292 22.424C202.292 22.5893 202.236 22.728 202.124 22.84C202.012 22.952 201.876 23.008 201.716 23.008ZM202.164 23.592V28H201.252V23.592H202.164ZM203.058 25.776C203.058 25.3333 203.148 24.9413 203.33 24.6C203.516 24.2587 203.767 23.9947 204.082 23.808C204.402 23.616 204.756 23.52 205.146 23.52C205.434 23.52 205.716 23.584 205.994 23.712C206.276 23.8347 206.5 24 206.666 24.208V22.08H207.586V28H206.666V27.336C206.516 27.5493 206.308 27.7253 206.042 27.864C205.78 28.0027 205.479 28.072 205.138 28.072C204.754 28.072 204.402 27.976 204.082 27.784C203.767 27.5867 203.516 27.3147 203.33 26.968C203.148 26.616 203.058 26.2187 203.058 25.776ZM206.666 25.792C206.666 25.488 206.602 25.224 206.474 25C206.351 24.776 206.188 24.6053 205.986 24.488C205.783 24.3707 205.564 24.312 205.33 24.312C205.095 24.312 204.876 24.3707 204.674 24.488C204.471 24.6 204.306 24.768 204.178 24.992C204.055 25.2107 203.994 25.472 203.994 25.776C203.994 26.08 204.055 26.3467 204.178 26.576C204.306 26.8053 204.471 26.9813 204.674 27.104C204.882 27.2213 205.1 27.28 205.33 27.28C205.564 27.28 205.783 27.2213 205.986 27.104C206.188 26.9867 206.351 26.816 206.474 26.592C206.602 26.3627 206.666 26.096 206.666 25.792ZM210.696 28.072C210.28 28.072 209.904 27.9787 209.568 27.792C209.232 27.6 208.968 27.3333 208.776 26.992C208.584 26.6453 208.488 26.2453 208.488 25.792C208.488 25.344 208.586 24.9467 208.784 24.6C208.981 24.2533 209.25 23.9867 209.592 23.8C209.933 23.6133 210.314 23.52 210.736 23.52C211.157 23.52 211.538 23.6133 211.88 23.8C212.221 23.9867 212.49 24.2533 212.688 24.6C212.885 24.9467 212.984 25.344 212.984 25.792C212.984 26.24 212.882 26.6373 212.68 26.984C212.477 27.3307 212.2 27.6 211.848 27.792C211.501 27.9787 211.117 28.072 210.696 28.072ZM210.696 27.28C210.93 27.28 211.149 27.224 211.352 27.112C211.56 27 211.728 26.832 211.856 26.608C211.984 26.384 212.048 26.112 212.048 25.792C212.048 25.472 211.986 25.2027 211.864 24.984C211.741 24.76 211.578 24.592 211.376 24.48C211.173 24.368 210.954 24.312 210.72 24.312C210.485 24.312 210.266 24.368 210.064 24.48C209.866 24.592 209.709 24.76 209.592 24.984C209.474 25.2027 209.416 25.472 209.416 25.792C209.416 26.2667 209.536 26.6347 209.776 26.896C210.021 27.152 210.328 27.28 210.696 27.28ZM216.875 24.24C217.03 24.0373 217.241 23.8667 217.507 23.728C217.774 23.5893 218.075 23.52 218.411 23.52C218.795 23.52 219.145 23.616 219.459 23.808C219.779 23.9947 220.03 24.2587 220.211 24.6C220.393 24.9413 220.483 25.3333 220.483 25.776C220.483 26.2187 220.393 26.616 220.211 26.968C220.03 27.3147 219.779 27.5867 219.459 27.784C219.145 27.976 218.795 28.072 218.411 28.072C218.075 28.072 217.777 28.0053 217.515 27.872C217.254 27.7333 217.041 27.5627 216.875 27.36V30.096H215.963V23.592H216.875V24.24ZM219.555 25.776C219.555 25.472 219.491 25.2107 219.363 24.992C219.241 24.768 219.075 24.6 218.867 24.488C218.665 24.3707 218.446 24.312 218.211 24.312C217.982 24.312 217.763 24.3707 217.555 24.488C217.353 24.6053 217.187 24.776 217.059 25C216.937 25.224 216.875 25.488 216.875 25.792C216.875 26.096 216.937 26.3627 217.059 26.592C217.187 26.816 217.353 26.9867 217.555 27.104C217.763 27.2213 217.982 27.28 218.211 27.28C218.446 27.28 218.665 27.2213 218.867 27.104C219.075 26.9813 219.241 26.8053 219.363 26.576C219.491 26.3467 219.555 26.08 219.555 25.776ZM223.297 28.072C222.881 28.072 222.505 27.9787 222.169 27.792C221.833 27.6 221.569 27.3333 221.377 26.992C221.185 26.6453 221.089 26.2453 221.089 25.792C221.089 25.344 221.188 24.9467 221.385 24.6C221.582 24.2533 221.852 23.9867 222.193 23.8C222.534 23.6133 222.916 23.52 223.337 23.52C223.758 23.52 224.14 23.6133 224.481 23.8C224.822 23.9867 225.092 24.2533 225.289 24.6C225.486 24.9467 225.585 25.344 225.585 25.792C225.585 26.24 225.484 26.6373 225.281 26.984C225.078 27.3307 224.801 27.6 224.449 27.792C224.102 27.9787 223.718 28.072 223.297 28.072ZM223.297 27.28C223.532 27.28 223.75 27.224 223.953 27.112C224.161 27 224.329 26.832 224.457 26.608C224.585 26.384 224.649 26.112 224.649 25.792C224.649 25.472 224.588 25.2027 224.465 24.984C224.342 24.76 224.18 24.592 223.977 24.48C223.774 24.368 223.556 24.312 223.321 24.312C223.086 24.312 222.868 24.368 222.665 24.48C222.468 24.592 222.31 24.76 222.193 24.984C222.076 25.2027 222.017 25.472 222.017 25.792C222.017 26.2667 222.137 26.6347 222.377 26.896C222.622 27.152 222.929 27.28 223.297 27.28ZM227.399 24.232C227.532 24.008 227.708 23.8347 227.927 23.712C228.151 23.584 228.415 23.52 228.719 23.52V24.464H228.487C228.129 24.464 227.857 24.5547 227.671 24.736C227.489 24.9173 227.399 25.232 227.399 25.68V28H226.487V23.592H227.399V24.232ZM235.659 24.04C235.515 23.7627 235.315 23.5547 235.059 23.416C234.803 23.272 234.507 23.2 234.171 23.2C233.803 23.2 233.475 23.2827 233.187 23.448C232.899 23.6133 232.672 23.848 232.507 24.152C232.347 24.456 232.267 24.808 232.267 25.208C232.267 25.608 232.347 25.9627 232.507 26.272C232.672 26.576 232.899 26.8107 233.187 26.976C233.475 27.1413 233.803 27.224 234.171 27.224C234.667 27.224 235.07 27.0853 235.379 26.808C235.688 26.5307 235.878 26.1547 235.947 25.68H233.859V24.952H236.923V25.664C236.864 26.096 236.71 26.4933 236.459 26.856C236.214 27.2187 235.891 27.5093 235.491 27.728C235.096 27.9413 234.656 28.048 234.171 28.048C233.648 28.048 233.171 27.928 232.739 27.688C232.307 27.4427 231.963 27.104 231.707 26.672C231.456 26.24 231.331 25.752 231.331 25.208C231.331 24.664 231.456 24.176 231.707 23.744C231.963 23.312 232.307 22.976 232.739 22.736C233.176 22.4907 233.654 22.368 234.171 22.368C234.763 22.368 235.288 22.5147 235.747 22.808C236.211 23.096 236.547 23.5067 236.755 24.04H235.659ZM238.735 24.232C238.868 24.008 239.044 23.8347 239.263 23.712C239.487 23.584 239.751 23.52 240.055 23.52V24.464H239.823C239.465 24.464 239.193 24.5547 239.007 24.736C238.825 24.9173 238.735 25.232 238.735 25.68V28H237.823V23.592H238.735V24.232ZM244.885 23.592V28H243.973V27.48C243.829 27.6613 243.64 27.8053 243.405 27.912C243.176 28.0133 242.93 28.064 242.669 28.064C242.322 28.064 242.01 27.992 241.733 27.848C241.461 27.704 241.245 27.4907 241.085 27.208C240.93 26.9253 240.853 26.584 240.853 26.184V23.592H241.757V26.048C241.757 26.4427 241.856 26.7467 242.053 26.96C242.25 27.168 242.52 27.272 242.861 27.272C243.202 27.272 243.472 27.168 243.669 26.96C243.872 26.7467 243.973 26.4427 243.973 26.048V23.592H244.885ZM247 24.24C247.155 24.0373 247.366 23.8667 247.632 23.728C247.899 23.5893 248.2 23.52 248.536 23.52C248.92 23.52 249.27 23.616 249.584 23.808C249.904 23.9947 250.155 24.2587 250.336 24.6C250.518 24.9413 250.608 25.3333 250.608 25.776C250.608 26.2187 250.518 26.616 250.336 26.968C250.155 27.3147 249.904 27.5867 249.584 27.784C249.27 27.976 248.92 28.072 248.536 28.072C248.2 28.072 247.902 28.0053 247.64 27.872C247.379 27.7333 247.166 27.5627 247 27.36V30.096H246.088V23.592H247V24.24ZM249.68 25.776C249.68 25.472 249.616 25.2107 249.488 24.992C249.366 24.768 249.2 24.6 248.992 24.488C248.79 24.3707 248.571 24.312 248.336 24.312C248.107 24.312 247.888 24.3707 247.68 24.488C247.478 24.6053 247.312 24.776 247.184 25C247.062 25.224 247 25.488 247 25.792C247 26.096 247.062 26.3627 247.184 26.592C247.312 26.816 247.478 26.9867 247.68 27.104C247.888 27.2213 248.107 27.28 248.336 27.28C248.571 27.28 248.79 27.2213 248.992 27.104C249.2 26.9813 249.366 26.8053 249.488 26.576C249.616 26.3467 249.68 26.08 249.68 25.776ZM253.422 28.072C253.006 28.072 252.63 27.9787 252.294 27.792C251.958 27.6 251.694 27.3333 251.502 26.992C251.31 26.6453 251.214 26.2453 251.214 25.792C251.214 25.344 251.313 24.9467 251.51 24.6C251.707 24.2533 251.977 23.9867 252.318 23.8C252.659 23.6133 253.041 23.52 253.462 23.52C253.883 23.52 254.265 23.6133 254.606 23.8C254.947 23.9867 255.217 24.2533 255.414 24.6C255.611 24.9467 255.71 25.344 255.71 25.792C255.71 26.24 255.609 26.6373 255.406 26.984C255.203 27.3307 254.926 27.6 254.574 27.792C254.227 27.9787 253.843 28.072 253.422 28.072ZM253.422 27.28C253.657 27.28 253.875 27.224 254.078 27.112C254.286 27 254.454 26.832 254.582 26.608C254.71 26.384 254.774 26.112 254.774 25.792C254.774 25.472 254.713 25.2027 254.59 24.984C254.467 24.76 254.305 24.592 254.102 24.48C253.899 24.368 253.681 24.312 253.446 24.312C253.211 24.312 252.993 24.368 252.79 24.48C252.593 24.592 252.435 24.76 252.318 24.984C252.201 25.2027 252.142 25.472 252.142 25.792C252.142 26.2667 252.262 26.6347 252.502 26.896C252.747 27.152 253.054 27.28 253.422 27.28ZM262.578 24.096C262.578 24.3787 262.511 24.6453 262.378 24.896C262.245 25.1467 262.031 25.352 261.738 25.512C261.445 25.6667 261.069 25.744 260.61 25.744H259.602V28H258.69V22.44H260.61C261.037 22.44 261.397 22.5147 261.69 22.664C261.989 22.808 262.21 23.0053 262.354 23.256C262.503 23.5067 262.578 23.7867 262.578 24.096ZM260.61 25C260.957 25 261.215 24.9227 261.386 24.768C261.557 24.608 261.642 24.384 261.642 24.096C261.642 23.488 261.298 23.184 260.61 23.184H259.602V25H260.61ZM264.36 24.232C264.493 24.008 264.669 23.8347 264.888 23.712C265.112 23.584 265.376 23.52 265.68 23.52V24.464H265.448C265.09 24.464 264.818 24.5547 264.632 24.736C264.45 24.9173 264.36 25.232 264.36 25.68V28H263.448V23.592H264.36V24.232ZM268.43 28.072C268.014 28.072 267.638 27.9787 267.302 27.792C266.966 27.6 266.702 27.3333 266.51 26.992C266.318 26.6453 266.222 26.2453 266.222 25.792C266.222 25.344 266.321 24.9467 266.518 24.6C266.715 24.2533 266.985 23.9867 267.326 23.8C267.667 23.6133 268.049 23.52 268.47 23.52C268.891 23.52 269.273 23.6133 269.614 23.8C269.955 23.9867 270.225 24.2533 270.422 24.6C270.619 24.9467 270.718 25.344 270.718 25.792C270.718 26.24 270.617 26.6373 270.414 26.984C270.211 27.3307 269.934 27.6 269.582 27.792C269.235 27.9787 268.851 28.072 268.43 28.072ZM268.43 27.28C268.665 27.28 268.883 27.224 269.086 27.112C269.294 27 269.462 26.832 269.59 26.608C269.718 26.384 269.782 26.112 269.782 25.792C269.782 25.472 269.721 25.2027 269.598 24.984C269.475 24.76 269.313 24.592 269.11 24.48C268.907 24.368 268.689 24.312 268.454 24.312C268.219 24.312 268.001 24.368 267.798 24.48C267.601 24.592 267.443 24.76 267.326 24.984C267.209 25.2027 267.15 25.472 267.15 25.792C267.15 26.2667 267.27 26.6347 267.51 26.896C267.755 27.152 268.062 27.28 268.43 27.28ZM276.956 23.52C277.302 23.52 277.612 23.592 277.884 23.736C278.161 23.88 278.377 24.0933 278.532 24.376C278.692 24.6587 278.772 25 278.772 25.4V28H277.868V25.536C277.868 25.1413 277.769 24.84 277.572 24.632C277.374 24.4187 277.105 24.312 276.764 24.312C276.422 24.312 276.15 24.4187 275.948 24.632C275.75 24.84 275.652 25.1413 275.652 25.536V28H274.748V25.536C274.748 25.1413 274.649 24.84 274.452 24.632C274.254 24.4187 273.985 24.312 273.644 24.312C273.302 24.312 273.03 24.4187 272.828 24.632C272.63 24.84 272.532 25.1413 272.532 25.536V28H271.62V23.592H272.532V24.096C272.681 23.9147 272.87 23.7733 273.1 23.672C273.329 23.5707 273.574 23.52 273.836 23.52C274.188 23.52 274.502 23.5947 274.78 23.744C275.057 23.8933 275.27 24.1093 275.42 24.392C275.553 24.1253 275.761 23.9147 276.044 23.76C276.326 23.6 276.63 23.52 276.956 23.52ZM280.396 23.008C280.231 23.008 280.092 22.952 279.98 22.84C279.868 22.728 279.812 22.5893 279.812 22.424C279.812 22.2587 279.868 22.12 279.98 22.008C280.092 21.896 280.231 21.84 280.396 21.84C280.556 21.84 280.692 21.896 280.804 22.008C280.916 22.12 280.972 22.2587 280.972 22.424C280.972 22.5893 280.916 22.728 280.804 22.84C280.692 22.952 280.556 23.008 280.396 23.008ZM280.844 23.592V28H279.932V23.592H280.844ZM284.265 23.52C284.612 23.52 284.921 23.592 285.193 23.736C285.471 23.88 285.687 24.0933 285.841 24.376C285.996 24.6587 286.073 25 286.073 25.4V28H285.169V25.536C285.169 25.1413 285.071 24.84 284.873 24.632C284.676 24.4187 284.407 24.312 284.065 24.312C283.724 24.312 283.452 24.4187 283.249 24.632C283.052 24.84 282.953 25.1413 282.953 25.536V28H282.041V23.592H282.953V24.096C283.103 23.9147 283.292 23.7733 283.521 23.672C283.756 23.5707 284.004 23.52 284.265 23.52ZM286.933 25.776C286.933 25.3333 287.023 24.9413 287.205 24.6C287.391 24.2587 287.642 23.9947 287.957 23.808C288.277 23.616 288.629 23.52 289.013 23.52C289.359 23.52 289.661 23.5893 289.917 23.728C290.178 23.8613 290.386 24.0293 290.541 24.232V23.592H291.461V28H290.541V27.344C290.386 27.552 290.175 27.7253 289.909 27.864C289.642 28.0027 289.338 28.072 288.997 28.072C288.618 28.072 288.271 27.976 287.957 27.784C287.642 27.5867 287.391 27.3147 287.205 26.968C287.023 26.616 286.933 26.2187 286.933 25.776ZM290.541 25.792C290.541 25.488 290.477 25.224 290.349 25C290.226 24.776 290.063 24.6053 289.861 24.488C289.658 24.3707 289.439 24.312 289.205 24.312C288.97 24.312 288.751 24.3707 288.549 24.488C288.346 24.6 288.181 24.768 288.053 24.992C287.93 25.2107 287.869 25.472 287.869 25.776C287.869 26.08 287.93 26.3467 288.053 26.576C288.181 26.8053 288.346 26.9813 288.549 27.104C288.757 27.2213 288.975 27.28 289.205 27.28C289.439 27.28 289.658 27.2213 289.861 27.104C290.063 26.9867 290.226 26.816 290.349 26.592C290.477 26.3627 290.541 26.096 290.541 25.792ZM294.259 28.072C293.912 28.072 293.6 28.0107 293.323 27.888C293.051 27.76 292.835 27.5893 292.675 27.376C292.515 27.1573 292.429 26.9147 292.419 26.648H293.363C293.379 26.8347 293.467 26.992 293.627 27.12C293.792 27.2427 293.997 27.304 294.243 27.304C294.499 27.304 294.696 27.256 294.835 27.16C294.979 27.0587 295.051 26.9307 295.051 26.776C295.051 26.6107 294.971 26.488 294.811 26.408C294.656 26.328 294.408 26.24 294.067 26.144C293.736 26.0533 293.467 25.9653 293.259 25.88C293.051 25.7947 292.869 25.664 292.715 25.488C292.565 25.312 292.491 25.08 292.491 24.792C292.491 24.5573 292.56 24.344 292.699 24.152C292.837 23.9547 293.035 23.8 293.291 23.688C293.552 23.576 293.851 23.52 294.187 23.52C294.688 23.52 295.091 23.648 295.395 23.904C295.704 24.1547 295.869 24.4987 295.891 24.936H294.979C294.963 24.7387 294.883 24.5813 294.739 24.464C294.595 24.3467 294.4 24.288 294.155 24.288C293.915 24.288 293.731 24.3333 293.603 24.424C293.475 24.5147 293.411 24.6347 293.411 24.784C293.411 24.9013 293.453 25 293.539 25.08C293.624 25.16 293.728 25.224 293.851 25.272C293.973 25.3147 294.155 25.3707 294.395 25.44C294.715 25.5253 294.976 25.6133 295.179 25.704C295.387 25.7893 295.565 25.9173 295.715 26.088C295.864 26.2587 295.941 26.4853 295.947 26.768C295.947 27.0187 295.877 27.2427 295.739 27.44C295.6 27.6373 295.403 27.792 295.147 27.904C294.896 28.016 294.6 28.072 294.259 28.072Z" fill="white"/>
</svg>
