<svg width="210" height="32" viewBox="0 0 210 32" fill="none" xmlns="http://www.w3.org/2000/svg">
<path d="M0.979889 15.8559C0.979889 7.38989 7.84292 0.526855 16.3089 0.526855H194.361C202.827 0.526855 209.69 7.38989 209.69 15.8559C209.69 24.3219 202.827 31.1849 194.361 31.1849H16.3089C7.84292 31.1849 0.979889 24.3219 0.979889 15.8559Z" fill="#D9D9D9"/>
<path d="M43.4443 20.6503L46.2144 12.7557H47.1054L49.8755 20.6503H48.963L46.8732 14.4837C46.83 14.3577 46.7922 14.2389 46.7598 14.1273C46.7274 14.0157 46.6968 13.8987 46.668 13.7763H46.6248C46.596 13.8987 46.5654 14.0157 46.533 14.1273C46.5006 14.2389 46.4628 14.3577 46.4196 14.4837L44.3191 20.6503H43.4443ZM44.6161 18.5228L44.8699 17.7992H48.4392L48.693 18.5228H44.6161Z" fill="#333333"/>
<path d="M49.6001 15.2342H50.4425L51.8033 18.971C51.8537 19.1113 51.8969 19.2445 51.9329 19.3705C51.9725 19.4965 51.9995 19.5919 52.0139 19.6567H52.0463C52.0607 19.5919 52.0877 19.4965 52.1273 19.3705C52.1669 19.2445 52.2119 19.1113 52.2623 18.971L53.6123 15.2342H54.4438L52.3757 20.6503H51.6683L49.6001 15.2342Z" fill="#333333"/>
<path d="M54.7894 19.0789C54.7894 18.5354 55.0018 18.1106 55.4266 17.8046C55.855 17.495 56.4058 17.3402 57.079 17.3402H58.3317V16.9082C58.3317 16.5662 58.2417 16.2962 58.0618 16.0982C57.8854 15.8966 57.5866 15.7958 57.1654 15.7958C56.7442 15.7958 56.4364 15.8804 56.242 16.0496C56.0476 16.2152 55.9504 16.4258 55.9504 16.6814V16.7462H55.1026V16.6544C55.1026 16.2332 55.288 15.8678 55.6588 15.5582C56.0332 15.2486 56.5408 15.0938 57.1816 15.0938C57.8152 15.0938 58.3065 15.2414 58.6557 15.5366C59.0049 15.8318 59.1795 16.289 59.1795 16.9082V19.3543C59.1795 19.5883 59.1957 19.8097 59.2281 20.0185C59.2641 20.2237 59.3163 20.4055 59.3847 20.5639V20.6503H58.5693C58.5153 20.5603 58.4685 20.4433 58.4289 20.2993C58.3893 20.1553 58.3623 20.0095 58.3479 19.8619C58.222 20.0923 58.0132 20.2975 57.7216 20.4775C57.4336 20.6539 57.0628 20.7421 56.6092 20.7421C56.0872 20.7421 55.6534 20.5999 55.3078 20.3155C54.9622 20.0311 54.7894 19.6189 54.7894 19.0789ZM55.6426 19.0357C55.6426 19.3561 55.7362 19.6045 55.9234 19.7809C56.1142 19.9573 56.4004 20.0455 56.782 20.0455C57.1744 20.0455 57.5308 19.9105 57.8512 19.6405C58.1716 19.3705 58.3317 19.0789 58.3317 18.7658V17.972H57.187C56.6722 17.972 56.2852 18.0674 56.026 18.2582C55.7704 18.449 55.6426 18.7082 55.6426 19.0357Z" fill="#333333"/>
<path d="M60.6699 20.6503V12.5127H61.5231V20.6503H60.6699Z" fill="#333333"/>
<path d="M63.0836 20.6503V15.2342H63.9368V20.6503H63.0836ZM62.9648 13.4631C62.9648 13.3119 63.0116 13.1859 63.1052 13.0851C63.1988 12.9807 63.3338 12.9285 63.5102 12.9285C63.6866 12.9285 63.8216 12.9807 63.9152 13.0851C64.0088 13.1859 64.0556 13.3119 64.0556 13.4631C64.0556 13.6107 64.0088 13.7367 63.9152 13.8411C63.8216 13.9419 63.6866 13.9923 63.5102 13.9923C63.3338 13.9923 63.1988 13.9419 63.1052 13.8411C63.0116 13.7367 62.9648 13.6107 62.9648 13.4631Z" fill="#333333"/>
<path d="M65.1464 19.0789C65.1464 18.5354 65.3588 18.1106 65.7836 17.8046C66.212 17.495 66.7628 17.3402 67.4359 17.3402H68.6887V16.9082C68.6887 16.5662 68.5987 16.2962 68.4187 16.0982C68.2423 15.8966 67.9435 15.7958 67.5223 15.7958C67.1011 15.7958 66.7934 15.8804 66.599 16.0496C66.4046 16.2152 66.3074 16.4258 66.3074 16.6814V16.7462H65.4596V16.6544C65.4596 16.2332 65.645 15.8678 66.0158 15.5582C66.3902 15.2486 66.8978 15.0938 67.5385 15.0938C68.1721 15.0938 68.6635 15.2414 69.0127 15.5366C69.3619 15.8318 69.5365 16.289 69.5365 16.9082V19.3543C69.5365 19.5883 69.5527 19.8097 69.5851 20.0185C69.6211 20.2237 69.6733 20.4055 69.7417 20.5639V20.6503H68.9263C68.8723 20.5603 68.8255 20.4433 68.7859 20.2993C68.7463 20.1553 68.7193 20.0095 68.7049 19.8619C68.5789 20.0923 68.3701 20.2975 68.0785 20.4775C67.7905 20.6539 67.4197 20.7421 66.9662 20.7421C66.4442 20.7421 66.0104 20.5999 65.6648 20.3155C65.3192 20.0311 65.1464 19.6189 65.1464 19.0789ZM65.9996 19.0357C65.9996 19.3561 66.0932 19.6045 66.2804 19.7809C66.4712 19.9573 66.7574 20.0455 67.1389 20.0455C67.5313 20.0455 67.8877 19.9105 68.2081 19.6405C68.5285 19.3705 68.6887 19.0789 68.6887 18.7658V17.972H67.5439C67.0292 17.972 66.6422 18.0674 66.383 18.2582C66.1274 18.449 65.9996 18.7082 65.9996 19.0357Z" fill="#333333"/>
<path d="M70.6651 18.026V17.8532C70.6651 17.0252 70.8829 16.3592 71.3185 15.8552C71.754 15.3476 72.3498 15.0938 73.1058 15.0938C73.815 15.0938 74.3514 15.2828 74.715 15.6608C75.0822 16.0388 75.2658 16.4834 75.2658 16.9946V17.0378H74.4342V16.9946C74.4342 16.6562 74.3244 16.3754 74.1048 16.1522C73.8888 15.9254 73.5558 15.812 73.1058 15.812C72.5838 15.812 72.1914 16.001 71.9286 16.379C71.6658 16.757 71.5345 17.2484 71.5345 17.8532V18.026C71.5345 18.6164 71.664 19.1059 71.9232 19.4947C72.186 19.8835 72.5802 20.0779 73.1058 20.0779C73.5594 20.0779 73.8942 19.9645 74.1102 19.7377C74.3298 19.5073 74.4396 19.2193 74.4396 18.8738V18.8306H75.2712V18.8738C75.2712 19.3849 75.0858 19.8331 74.715 20.2183C74.3478 20.5999 73.8114 20.7907 73.1058 20.7907C72.3498 20.7907 71.754 20.5369 71.3185 20.0293C70.8829 19.5217 70.6651 18.854 70.6651 18.026ZM72.717 20.5801H73.3542L73.203 21.1147C73.4478 21.1507 73.6728 21.2353 73.878 21.3685C74.0868 21.5053 74.1912 21.7195 74.1912 22.0111C74.1912 22.3567 74.0328 22.6339 73.716 22.8427C73.4028 23.0515 72.9042 23.1559 72.2202 23.1559L72.1824 22.6213C72.6072 22.6213 72.9096 22.5727 73.0896 22.4755C73.2732 22.3819 73.365 22.2361 73.365 22.0381C73.365 21.8617 73.2984 21.7393 73.1652 21.6709C73.032 21.6025 72.8088 21.5575 72.4956 21.5359L72.717 20.5801Z" fill="#333333"/>
<path d="M76.0109 18.026V17.8532C76.0109 17.036 76.2377 16.3718 76.6913 15.8606C77.1485 15.3494 77.7569 15.0938 78.5165 15.0938C79.2797 15.0938 79.8881 15.3494 80.3417 15.8606C80.7988 16.3718 81.0274 17.036 81.0274 17.8532V18.026C81.0274 18.8468 80.7988 19.5127 80.3417 20.0239C79.8881 20.5351 79.2797 20.7907 78.5165 20.7907C77.7533 20.7907 77.1449 20.5351 76.6913 20.0239C76.2377 19.5127 76.0109 18.8468 76.0109 18.026ZM76.8803 17.8586V18.026C76.8803 18.6092 77.0171 19.0969 77.2907 19.4893C77.5679 19.8817 77.9765 20.0779 78.5165 20.0779C79.0565 20.0779 79.4633 19.8817 79.7369 19.4893C80.0141 19.0969 80.1527 18.6092 80.1527 18.026V17.8586C80.1527 17.2718 80.0141 16.784 79.7369 16.3952C79.4633 16.0064 79.0565 15.812 78.5165 15.812C77.9765 15.812 77.5679 16.0064 77.2907 16.3952C77.0171 16.784 76.8803 17.2718 76.8803 17.8586ZM76.6913 13.8789C76.8065 13.6665 76.9811 13.4793 77.2151 13.3173C77.4527 13.1553 77.6867 13.0743 77.9171 13.0743C78.0575 13.0743 78.1907 13.0977 78.3167 13.1445C78.4463 13.1913 78.5741 13.2561 78.7001 13.3389C78.8189 13.4109 78.9413 13.4829 79.0673 13.5549C79.1969 13.6269 79.3283 13.6629 79.4615 13.6629C79.5983 13.6629 79.7279 13.6179 79.8503 13.5279C79.9763 13.4379 80.0789 13.3317 80.1581 13.2093L80.563 13.6791C80.4298 13.9167 80.2499 14.0949 80.0231 14.2137C79.7963 14.3325 79.5839 14.3919 79.3859 14.3919C79.2167 14.3919 79.0547 14.3541 78.8999 14.2785C78.7451 14.2029 78.6155 14.1363 78.5111 14.0787C78.3923 14.0103 78.2735 13.9509 78.1547 13.9005C78.0395 13.8465 77.9333 13.8195 77.8361 13.8195C77.6741 13.8195 77.5193 13.8807 77.3717 14.0031C77.2277 14.1255 77.1251 14.2317 77.0639 14.3217L76.6913 13.8789Z" fill="#333333"/>
<path d="M81.832 18.026V17.8532C81.832 17.036 82.0498 16.3718 82.4854 15.8606C82.9246 15.3494 83.5042 15.0938 84.2242 15.0938C84.9478 15.0938 85.5021 15.3314 85.8873 15.8066C86.2761 16.2818 86.4705 16.9352 86.4705 17.7668V18.1124H82.3396V17.4212H85.6119V17.324C85.6119 16.9172 85.5003 16.5626 85.2771 16.2602C85.0539 15.9578 84.7138 15.8066 84.2566 15.8066C83.7346 15.8066 83.344 16.001 83.0848 16.3898C82.8256 16.7786 82.696 17.2664 82.696 17.8532V18.026C82.696 18.6164 82.8328 19.1059 83.1064 19.4947C83.38 19.8835 83.7958 20.0779 84.3538 20.0779C84.7102 20.0779 85.0143 20.0041 85.2663 19.8565C85.5183 19.7053 85.7199 19.5199 85.8711 19.3003L86.4273 19.7647C86.2653 20.0167 86.0079 20.2507 85.6551 20.4667C85.3059 20.6827 84.874 20.7907 84.3592 20.7907C83.5456 20.7907 82.921 20.5369 82.4854 20.0293C82.0498 19.5181 81.832 18.8504 81.832 18.026Z" fill="#333333"/>
<path d="M87.3021 19.025H88.1499V19.0897C88.1499 19.4281 88.2651 19.6783 88.4955 19.8403C88.7295 19.9987 89.0427 20.0779 89.435 20.0779C89.831 20.0779 90.1406 20.0023 90.3638 19.8511C90.587 19.6963 90.6986 19.4857 90.6986 19.2193C90.6986 18.9566 90.6032 18.7586 90.4124 18.6254C90.2252 18.4922 89.8436 18.3554 89.2677 18.215C88.6881 18.071 88.2381 17.8784 87.9177 17.6372C87.5973 17.3924 87.4371 17.0486 87.4371 16.6058C87.4371 16.163 87.6153 15.8012 87.9717 15.5204C88.3281 15.236 88.8051 15.0938 89.4026 15.0938C90.0038 15.0938 90.4862 15.236 90.8498 15.5204C91.217 15.8048 91.4006 16.2008 91.4006 16.7084V16.7624H90.5528V16.6922C90.5528 16.397 90.4556 16.1774 90.2612 16.0334C90.0704 15.8858 89.7842 15.812 89.4026 15.812C89.0247 15.812 88.7439 15.8804 88.5603 16.0172C88.3767 16.154 88.2849 16.3376 88.2849 16.568C88.2849 16.7876 88.3839 16.9622 88.5819 17.0918C88.7835 17.2178 89.1687 17.3528 89.7374 17.4968C90.3062 17.6408 90.749 17.8388 91.0658 18.0908C91.3826 18.3392 91.541 18.6956 91.541 19.1599C91.541 19.6423 91.3664 20.0347 91.0172 20.3371C90.668 20.6395 90.1424 20.7907 89.4404 20.7907C88.7385 20.7907 88.2057 20.6395 87.8421 20.3371C87.4821 20.0311 87.3021 19.6153 87.3021 19.0897V19.025Z" fill="#333333"/>
<path d="M94.9537 16.9514V16.487C94.9537 15.2702 95.2363 14.3271 95.8015 13.6575C96.3703 12.9843 97.1245 12.6477 98.0641 12.6477C98.9136 12.6477 99.5742 12.8763 100.046 13.3335C100.517 13.7871 100.771 14.3433 100.807 15.002L100.813 15.0938H99.927V15.002C99.927 14.5844 99.765 14.2137 99.441 13.8897C99.1206 13.5657 98.658 13.4037 98.0533 13.4037C97.3765 13.4037 96.8383 13.6737 96.4387 14.2137C96.0391 14.7536 95.8393 15.5114 95.8393 16.487V16.9514C95.8393 17.927 96.0427 18.6866 96.4495 19.2301C96.8599 19.7701 97.4359 20.0401 98.1775 20.0401C98.559 20.0401 98.8884 19.9987 99.1656 19.9159C99.4464 19.8295 99.711 19.6945 99.9594 19.5109V17.5292H98.0641V16.7948H100.813V19.8187C100.604 20.0383 100.274 20.2561 99.8244 20.4721C99.3744 20.6845 98.8254 20.7907 98.1775 20.7907C97.1767 20.7907 96.3883 20.4559 95.8123 19.7863C95.2399 19.1131 94.9537 18.1682 94.9537 16.9514Z" fill="#333333"/>
<path d="M101.844 18.026V17.8532C101.844 17.036 102.071 16.3718 102.524 15.8606C102.982 15.3494 103.59 15.0938 104.35 15.0938C105.113 15.0938 105.721 15.3494 106.175 15.8606C106.632 16.3718 106.86 17.036 106.86 17.8532V18.026C106.86 18.8468 106.632 19.5127 106.175 20.0239C105.721 20.5351 105.113 20.7907 104.35 20.7907C103.586 20.7907 102.978 20.5351 102.524 20.0239C102.071 19.5127 101.844 18.8468 101.844 18.026ZM102.713 17.8586V18.026C102.713 18.6092 102.85 19.0969 103.124 19.4893C103.401 19.8817 103.81 20.0779 104.35 20.0779C104.889 20.0779 105.296 19.8817 105.57 19.4893C105.847 19.0969 105.986 18.6092 105.986 18.026V17.8586C105.986 17.2718 105.847 16.784 105.57 16.3952C105.296 16.0064 104.889 15.812 104.35 15.812C103.81 15.812 103.401 16.0064 103.124 16.3952C102.85 16.784 102.713 17.2718 102.713 17.8586Z" fill="#333333"/>
<path d="M107.665 18.026V17.8532C107.665 17.036 107.892 16.3718 108.345 15.8606C108.803 15.3494 109.411 15.0938 110.171 15.0938C110.934 15.0938 111.542 15.3494 111.996 15.8606C112.453 16.3718 112.682 17.036 112.682 17.8532V18.026C112.682 18.8468 112.453 19.5127 111.996 20.0239C111.542 20.5351 110.934 20.7907 110.171 20.7907C109.407 20.7907 108.799 20.5351 108.345 20.0239C107.892 19.5127 107.665 18.8468 107.665 18.026ZM108.534 17.8586V18.026C108.534 18.6092 108.671 19.0969 108.945 19.4893C109.222 19.8817 109.631 20.0779 110.171 20.0779C110.711 20.0779 111.117 19.8817 111.391 19.4893C111.668 19.0969 111.807 18.6092 111.807 18.026V17.8586C111.807 17.2718 111.668 16.784 111.391 16.3952C111.117 16.0064 110.711 15.812 110.171 15.812C109.631 15.812 109.222 16.0064 108.945 16.3952C108.671 16.784 108.534 17.2718 108.534 17.8586Z" fill="#333333"/>
<path d="M113.702 22.2541L114.215 21.5953C114.373 21.7609 114.591 21.9103 114.868 22.0435C115.146 22.1767 115.464 22.2433 115.824 22.2433C116.285 22.2433 116.656 22.0993 116.937 21.8113C117.217 21.5269 117.358 21.0967 117.358 20.5207V19.9753C117.192 20.2021 116.971 20.3875 116.694 20.5315C116.42 20.6719 116.091 20.7421 115.705 20.7421C115.025 20.7421 114.485 20.4883 114.085 19.9807C113.686 19.4695 113.486 18.818 113.486 18.026V17.8532C113.486 17.0648 113.686 16.4132 114.085 15.8984C114.485 15.3836 115.03 15.1262 115.722 15.1262C116.096 15.1262 116.429 15.2054 116.721 15.3638C117.012 15.5222 117.23 15.7166 117.374 15.947H117.396L117.428 15.2342H118.206V20.5207C118.206 21.3271 117.988 21.9409 117.552 22.3621C117.117 22.7833 116.541 22.9939 115.824 22.9939C115.389 22.9939 114.989 22.9237 114.625 22.7833C114.262 22.6429 113.954 22.4665 113.702 22.2541ZM114.355 18.026C114.355 18.602 114.48 19.0789 114.728 19.4569C114.98 19.8349 115.372 20.0239 115.905 20.0239C116.262 20.0239 116.564 19.9285 116.812 19.7377C117.064 19.5433 117.246 19.3201 117.358 19.0681V16.8002C117.246 16.5518 117.064 16.3304 116.812 16.136C116.564 15.9416 116.262 15.8444 115.905 15.8444C115.372 15.8444 114.98 16.037 114.728 16.4222C114.48 16.8038 114.355 17.2808 114.355 17.8532V18.026Z" fill="#333333"/>
<path d="M119.723 20.6503V12.5127H120.576V20.6503H119.723Z" fill="#333333"/>
<path d="M121.759 18.026V17.8532C121.759 17.036 121.977 16.3718 122.412 15.8606C122.851 15.3494 123.431 15.0938 124.151 15.0938C124.874 15.0938 125.429 15.3314 125.814 15.8066C126.203 16.2818 126.397 16.9352 126.397 17.7668V18.1124H122.266V17.4212H125.539V17.324C125.539 16.9172 125.427 16.5626 125.204 16.2602C124.981 15.9578 124.64 15.8066 124.183 15.8066C123.661 15.8066 123.271 16.001 123.011 16.3898C122.752 16.7786 122.623 17.2664 122.623 17.8532V18.026C122.623 18.6164 122.759 19.1059 123.033 19.4947C123.307 19.8835 123.722 20.0779 124.28 20.0779C124.637 20.0779 124.941 20.0041 125.193 19.8565C125.445 19.7053 125.647 19.5199 125.798 19.3003L126.354 19.7647C126.192 20.0167 125.935 20.2507 125.582 20.4667C125.233 20.6827 124.801 20.7907 124.286 20.7907C123.472 20.7907 122.848 20.5369 122.412 20.0293C121.977 19.5181 121.759 18.8504 121.759 18.026Z" fill="#333333"/>
<path d="M137.288 9.95959L138.654 14.1624H143.073L139.498 16.76L140.864 20.9628L137.288 18.3653L133.713 20.9628L135.079 16.76L131.504 14.1624H135.923L137.288 9.95959Z" fill="#FFBC02"/>
<path d="M149.826 9.95959L151.192 14.1624H155.611L152.036 16.76L153.401 20.9628L149.826 18.3653L146.251 20.9628L147.617 16.76L144.042 14.1624H148.461L149.826 9.95959Z" fill="#FFBC02"/>
<path d="M162.356 9.95959L163.722 14.1624H168.141L164.566 16.76L165.931 20.9628L162.356 18.3653L158.781 20.9628L160.147 16.76L156.571 14.1624H160.991L162.356 9.95959Z" fill="#FFBC02"/>
<path d="M174.878 9.95959L176.244 14.1624H180.663L177.088 16.76L178.453 20.9628L174.878 18.3653L171.303 20.9628L172.669 16.76L169.093 14.1624H173.513L174.878 9.95959Z" fill="#FFBC02"/>
<path d="M187.424 9.95959L188.789 14.1624H193.209L189.633 16.76L190.999 20.9628L187.424 18.3653L183.849 20.9628L185.214 16.76L181.639 14.1624H186.058L187.424 9.95959Z" fill="#FFBC02"/>
<path d="M28.3275 10.1464C29.7993 10.1464 31.1129 10.7007 32.0216 11.6089L34.7223 8.91802C33.1387 7.36796 30.9402 6.42236 28.2751 6.42236C24.5236 6.42236 21.2744 8.56839 19.689 11.6934L22.8216 14.1296C23.5961 11.8259 25.7647 10.1464 28.3275 10.1464Z" fill="#F72515"/>
<path d="M22.5196 15.9936C22.5196 15.3435 22.6264 14.7167 22.8236 14.1302L19.691 11.694C19.0318 12.9936 18.66 14.4624 18.66 16.0167C18.66 17.571 19.0276 19.0211 19.6794 20.3134L22.8221 17.8643C22.626 17.2753 22.5198 16.6459 22.5198 15.9936H22.5196Z" fill="#F9B200"/>
<path d="M28.2886 21.8513C25.728 21.8513 23.5831 20.1676 22.8158 17.8639L19.6731 20.313C21.2541 23.4475 24.5103 25.5985 28.2711 25.5985C30.8699 25.5985 33.0568 24.7651 34.6503 23.2913L31.6161 20.941C30.6492 21.5818 29.451 21.8513 28.2886 21.8513Z" fill="#00A53F"/>
<path d="M37.3542 14.2052V14.1976H28.285V17.9337H33.5479C33.2904 19.3472 32.5709 20.3187 31.6329 20.9404L34.6671 23.2906C36.4879 21.6066 37.5338 19.086 37.5338 16.0157C37.5338 15.4069 37.4461 14.7826 37.354 14.2052H37.3542Z" fill="#1D7CF4"/>
</svg>
