<svg width="316" height="88" viewBox="0 0 316 88" fill="none" xmlns="http://www.w3.org/2000/svg">
<path d="M2.70996 29.9204H19.7754V33.314H6.57959V38.3066H17.7856V41.4927H6.57959V49H2.70996V29.9204ZM30.0171 29.9204H34.1187L43.3472 49H39.2822L37.7563 45.7896H26.6113L25.1343 49H21.0571L30.0171 29.9204ZM36.2305 42.6035L32.1045 33.9365L28.0884 42.6035H36.2305ZM45.1538 39.3442C45.1538 37.9852 45.4102 36.7197 45.9229 35.5479C46.4355 34.3678 47.1761 33.3465 48.1445 32.4839C49.1211 31.6131 50.3092 30.9295 51.709 30.4331C53.1169 29.9367 54.7078 29.6885 56.4819 29.6885C58.0363 29.6885 59.4604 29.8472 60.7544 30.1646C62.0565 30.4738 63.265 30.9499 64.3799 31.5928L62.5977 34.5225C62.264 34.3027 61.8774 34.1074 61.438 33.9365C61.0067 33.7656 60.5428 33.6232 60.0464 33.5093C59.5581 33.3872 59.0495 33.2936 58.5205 33.2285C57.9997 33.1634 57.4829 33.1309 56.9702 33.1309C55.7332 33.1309 54.6305 33.2855 53.6621 33.5947C52.6937 33.8958 51.8758 34.3231 51.2085 34.8765C50.5493 35.4217 50.0448 36.0768 49.6948 36.8418C49.353 37.5986 49.1821 38.4328 49.1821 39.3442C49.1821 40.2882 49.3612 41.1549 49.7192 41.9443C50.0773 42.7337 50.5941 43.4173 51.2695 43.9951C51.9531 44.5648 52.7832 45.0124 53.7598 45.3379C54.7445 45.6553 55.8553 45.814 57.0923 45.814C57.6538 45.814 58.2113 45.7733 58.7646 45.6919C59.318 45.6105 59.8511 45.5007 60.3638 45.3623C60.8846 45.2158 61.3851 45.0449 61.8652 44.8496C62.3454 44.6462 62.793 44.4264 63.208 44.1904L64.9902 47.1201C63.9486 47.7874 62.7441 48.3123 61.377 48.6948C60.0098 49.0692 58.5571 49.2563 57.019 49.2563C55.0578 49.2563 53.3366 49.0041 51.8555 48.4995C50.3743 47.9868 49.1374 47.2869 48.1445 46.3999C47.1517 45.5047 46.403 44.4549 45.8984 43.2505C45.402 42.0379 45.1538 40.7358 45.1538 39.3442ZM68.5425 29.9204H72.4121V40.4307C72.4121 41.2933 72.5301 42.0623 72.7661 42.7378C73.0021 43.4051 73.3521 43.9707 73.8159 44.4346C74.2879 44.8984 74.8698 45.2524 75.5615 45.4966C76.2533 45.7326 77.0589 45.8506 77.9785 45.8506C78.89 45.8506 79.6916 45.7326 80.3833 45.4966C81.0832 45.2524 81.665 44.8984 82.1289 44.4346C82.6009 43.9707 82.9549 43.4051 83.1909 42.7378C83.4269 42.0623 83.5449 41.2933 83.5449 40.4307V29.9204H87.4146V40.8945C87.4146 42.1478 87.203 43.2871 86.7798 44.3125C86.3566 45.3379 85.7422 46.2168 84.9365 46.9492C84.1309 47.6816 83.1421 48.2472 81.9702 48.646C80.8065 49.0448 79.4759 49.2441 77.9785 49.2441C76.4811 49.2441 75.1465 49.0448 73.9746 48.646C72.8109 48.2472 71.8262 47.6816 71.0205 46.9492C70.2148 46.2168 69.6004 45.3379 69.1772 44.3125C68.7541 43.2871 68.5425 42.1478 68.5425 40.8945V29.9204ZM92.1387 29.9204H96.0083V45.6064H107.104V49H92.1387V29.9204ZM110.864 29.9204H117.859C119.902 29.9204 121.676 30.1401 123.181 30.5796C124.687 31.019 125.932 31.6497 126.917 32.4717C127.909 33.2855 128.646 34.2783 129.126 35.4502C129.614 36.6139 129.858 37.9242 129.858 39.3809C129.858 40.7643 129.618 42.0461 129.138 43.2261C128.658 44.3979 127.926 45.4152 126.941 46.2778C125.956 47.1323 124.711 47.8037 123.206 48.292C121.7 48.7721 119.926 49.0122 117.883 49.0122L110.864 49V29.9204ZM118.811 45.6553C119.967 45.6553 120.98 45.5088 121.851 45.2158C122.721 44.9147 123.446 44.4915 124.023 43.9463C124.609 43.401 125.049 42.7419 125.342 41.9688C125.635 41.1956 125.781 40.333 125.781 39.3809C125.781 38.445 125.635 37.6027 125.342 36.854C125.049 36.0972 124.609 35.4583 124.023 34.9375C123.446 34.4085 122.721 34.0016 121.851 33.7168C120.98 33.432 119.967 33.2896 118.811 33.2896H114.734V45.6553H118.811ZM140.247 29.9204H144.348L153.577 49H149.512L147.986 45.7896H136.841L135.364 49H131.287L140.247 29.9204ZM146.46 42.6035L142.334 33.9365L138.318 42.6035H146.46ZM156.543 29.9204H163.538C165.58 29.9204 167.354 30.1401 168.86 30.5796C170.365 31.019 171.611 31.6497 172.595 32.4717C173.588 33.2855 174.325 34.2783 174.805 35.4502C175.293 36.6139 175.537 37.9242 175.537 39.3809C175.537 40.7643 175.297 42.0461 174.817 43.2261C174.337 44.3979 173.604 45.4152 172.62 46.2778C171.635 47.1323 170.39 47.8037 168.884 48.292C167.379 48.7721 165.605 49.0122 163.562 49.0122L156.543 49V29.9204ZM164.49 45.6553C165.645 45.6553 166.659 45.5088 167.529 45.2158C168.4 44.9147 169.124 44.4915 169.702 43.9463C170.288 43.401 170.728 42.7419 171.021 41.9688C171.313 41.1956 171.46 40.333 171.46 39.3809C171.46 38.445 171.313 37.6027 171.021 36.854C170.728 36.0972 170.288 35.4583 169.702 34.9375C169.124 34.4085 168.4 34.0016 167.529 33.7168C166.659 33.432 165.645 33.2896 164.49 33.2896H160.413V45.6553H164.49ZM179.419 29.9204H195.667V33.314H183.289V37.1226H194.25V40.3086H183.289V45.6187H195.923V49H179.419V29.9204ZM207.8 29.9204H211.67V40.4307C211.67 41.2933 211.788 42.0623 212.024 42.7378C212.26 43.4051 212.61 43.9707 213.074 44.4346C213.546 44.8984 214.128 45.2524 214.819 45.4966C215.511 45.7326 216.317 45.8506 217.236 45.8506C218.148 45.8506 218.949 45.7326 219.641 45.4966C220.341 45.2524 220.923 44.8984 221.387 44.4346C221.859 43.9707 222.213 43.4051 222.449 42.7378C222.685 42.0623 222.803 41.2933 222.803 40.4307V29.9204H226.672V40.8945C226.672 42.1478 226.461 43.2871 226.038 44.3125C225.614 45.3379 225 46.2168 224.194 46.9492C223.389 47.6816 222.4 48.2472 221.228 48.646C220.064 49.0448 218.734 49.2441 217.236 49.2441C215.739 49.2441 214.404 49.0448 213.232 48.646C212.069 48.2472 211.084 47.6816 210.278 46.9492C209.473 46.2168 208.858 45.3379 208.435 44.3125C208.012 43.2871 207.8 42.1478 207.8 40.8945V29.9204ZM212.695 26.5269L220.923 24.2197L221.777 27.2471L213.452 29.188L212.695 26.5269ZM231.372 29.9204H235.242L247.131 36.146V29.9204H251.001V49H247.131V40.2476L235.242 34.0586V49H231.372V29.9204ZM255.908 29.9204H259.802V49H255.908V29.9204ZM263.586 39.3442C263.586 37.9852 263.843 36.7197 264.355 35.5479C264.868 34.3678 265.609 33.3465 266.577 32.4839C267.554 31.6131 268.742 30.9295 270.142 30.4331C271.549 29.9367 273.14 29.6885 274.915 29.6885C276.469 29.6885 277.893 29.8472 279.187 30.1646C280.489 30.4738 281.698 30.9499 282.812 31.5928L281.03 34.5225C280.697 34.3027 280.31 34.1074 279.871 33.9365C279.439 33.7656 278.975 33.6232 278.479 33.5093C277.991 33.3872 277.482 33.2936 276.953 33.2285C276.432 33.1634 275.916 33.1309 275.403 33.1309C274.166 33.1309 273.063 33.2855 272.095 33.5947C271.126 33.8958 270.308 34.3231 269.641 34.8765C268.982 35.4217 268.477 36.0768 268.127 36.8418C267.786 37.5986 267.615 38.4328 267.615 39.3442C267.615 40.2882 267.794 41.1549 268.152 41.9443C268.51 42.7337 269.027 43.4173 269.702 43.9951C270.386 44.5648 271.216 45.0124 272.192 45.3379C273.177 45.6553 274.288 45.814 275.525 45.814C276.086 45.814 276.644 45.7733 277.197 45.6919C277.751 45.6105 278.284 45.5007 278.796 45.3623C279.317 45.2158 279.818 45.0449 280.298 44.8496C280.778 44.6462 281.226 44.4264 281.641 44.1904L283.423 47.1201C282.381 47.7874 281.177 48.3123 279.81 48.6948C278.442 49.0692 276.99 49.2563 275.452 49.2563C273.49 49.2563 271.769 49.0041 270.288 48.4995C268.807 47.9868 267.57 47.2869 266.577 46.3999C265.584 45.5047 264.836 44.4549 264.331 43.2505C263.835 42.0379 263.586 40.7358 263.586 39.3442ZM294.202 29.9204H298.303L307.532 49H303.467L301.941 45.7896H290.796L289.319 49H285.242L294.202 29.9204ZM300.415 42.6035L296.289 33.9365L292.273 42.6035H300.415Z" fill="white"/>
<path d="M2.81937 10.3442C2.81937 8.98519 3.07571 7.71973 3.58841 6.54785C4.1011 5.36784 4.84166 4.34652 5.81009 3.48389C6.78665 2.61312 7.9748 1.92952 9.37454 1.43311C10.7824 0.936686 12.3734 0.688477 14.1475 0.688477C15.7019 0.688477 17.126 0.847168 18.42 1.16455C19.722 1.4738 20.9305 1.94987 22.0454 2.59277L20.2632 5.52246C19.9296 5.30273 19.543 5.10742 19.1035 4.93652C18.6722 4.76562 18.2084 4.62321 17.7119 4.50928C17.2237 4.38721 16.715 4.29362 16.1861 4.22852C15.6652 4.16341 15.1485 4.13086 14.6358 4.13086C13.3988 4.13086 12.2961 4.28548 11.3277 4.59473C10.3592 4.89583 9.54137 5.32308 8.87405 5.87646C8.21487 6.42171 7.71032 7.07682 7.36038 7.8418C7.01859 8.59863 6.84769 9.43278 6.84769 10.3442C6.84769 11.2882 7.02672 12.1549 7.3848 12.9443C7.74287 13.7337 8.25963 14.4173 8.93509 14.9951C9.61868 15.5648 10.4488 16.0124 11.4253 16.3379C12.41 16.6553 13.5209 16.814 14.7578 16.814C15.3194 16.814 15.8768 16.7733 16.4302 16.6919C16.9836 16.6105 17.5166 16.5007 18.0293 16.3623C18.5502 16.2158 19.0506 16.0449 19.5308 15.8496C20.0109 15.6462 20.4585 15.4264 20.8736 15.1904L22.6558 18.1201C21.6141 18.7874 20.4097 19.3123 19.0425 19.6948C17.6753 20.0692 16.2227 20.2563 14.6846 20.2563C12.7233 20.2563 11.0021 20.0041 9.52103 19.4995C8.03991 18.9868 6.80293 18.2869 5.81009 17.3999C4.81725 16.5047 4.06855 15.4549 3.564 14.2505C3.06758 13.0379 2.81937 11.7358 2.81937 10.3442ZM25.8052 10.4053C25.8052 8.96484 26.0697 7.64648 26.5987 6.4502C27.1276 5.25391 27.8682 4.22852 28.8203 3.37402C29.7806 2.51139 30.9281 1.84408 32.2627 1.37207C33.6055 0.900065 35.0907 0.664062 36.7183 0.664062C38.3378 0.664062 39.8189 0.900065 41.1617 1.37207C42.5044 1.84408 43.6519 2.51139 44.604 3.37402C45.5643 4.22852 46.3089 5.25391 46.8379 6.4502C47.3669 7.64648 47.6314 8.96484 47.6314 10.4053C47.6314 11.8538 47.3669 13.1844 46.8379 14.397C46.3089 15.6014 45.5643 16.639 44.604 17.5098C43.6519 18.3805 42.5044 19.0601 41.1617 19.5483C39.8189 20.0285 38.3378 20.2686 36.7183 20.2686C35.0907 20.2686 33.6055 20.0285 32.2627 19.5483C30.9281 19.0601 29.7806 18.3805 28.8203 17.5098C27.8682 16.639 27.1276 15.6014 26.5987 14.397C26.0697 13.1844 25.8052 11.8538 25.8052 10.4053ZM29.6748 10.4053C29.6748 11.39 29.8498 12.277 30.1997 13.0664C30.5578 13.8558 31.0502 14.5312 31.6768 15.0928C32.3116 15.6462 33.0562 16.0734 33.9107 16.3745C34.7733 16.6756 35.7092 16.8262 36.7183 16.8262C37.7274 16.8262 38.6592 16.6756 39.5137 16.3745C40.3763 16.0734 41.121 15.6462 41.7476 15.0928C42.3742 14.5312 42.8666 13.8558 43.2246 13.0664C43.5827 12.277 43.7617 11.39 43.7617 10.4053C43.7617 9.42057 43.5827 8.5376 43.2246 7.75635C42.8666 6.9751 42.3742 6.31592 41.7476 5.77881C41.121 5.23356 40.3763 4.81852 39.5137 4.53369C38.6592 4.24886 37.7274 4.10645 36.7183 4.10645C35.7092 4.10645 34.7733 4.24886 33.9107 4.53369C33.0562 4.81852 32.3116 5.23356 31.6768 5.77881C31.0502 6.31592 30.5578 6.9751 30.1997 7.75635C29.8498 8.5376 29.6748 9.42057 29.6748 10.4053ZM51.9038 0.92041H55.7735L67.6631 7.146V0.92041H71.5327V20H67.6631V11.2476L55.7735 5.05859V20H51.9038V0.92041ZM76.916 0.92041H80.7857V5.90088H92.6509V0.92041H96.5327V20H92.6509V9.20898H80.7857V20H76.916V0.92041ZM101.953 0.92041H118.2V4.31396H105.822V8.12256H116.784V11.3086H105.822V16.6187H118.457V20H101.953V0.92041ZM121.594 10.3442C121.594 8.98519 121.85 7.71973 122.363 6.54785C122.876 5.36784 123.616 4.34652 124.585 3.48389C125.561 2.61312 126.749 1.92952 128.149 1.43311C129.557 0.936686 131.148 0.688477 132.922 0.688477C134.476 0.688477 135.9 0.847168 137.194 1.16455C138.496 1.4738 139.705 1.94987 140.82 2.59277L139.038 5.52246C138.704 5.30273 138.317 5.10742 137.878 4.93652C137.447 4.76562 136.983 4.62321 136.486 4.50928C135.998 4.38721 135.489 4.29362 134.96 4.22852C134.44 4.16341 133.923 4.13086 133.41 4.13086C132.173 4.13086 131.071 4.28548 130.102 4.59473C129.134 4.89583 128.316 5.32308 127.648 5.87646C126.989 6.42171 126.485 7.07682 126.135 7.8418C125.793 8.59863 125.622 9.43278 125.622 10.3442C125.622 11.2882 125.801 12.1549 126.159 12.9443C126.517 13.7337 127.034 14.4173 127.71 14.9951C128.393 15.5648 129.223 16.0124 130.2 16.3379C131.184 16.6553 132.295 16.814 133.532 16.814C134.094 16.814 134.651 16.7733 135.205 16.6919C135.758 16.6105 136.291 16.5007 136.804 16.3623C137.325 16.2158 137.825 16.0449 138.305 15.8496C138.785 15.6462 139.233 15.4264 139.648 15.1904L141.43 18.1201C140.389 18.7874 139.184 19.3123 137.817 19.6948C136.45 20.0692 134.997 20.2563 133.459 20.2563C131.498 20.2563 129.777 20.0041 128.295 19.4995C126.814 18.9868 125.577 18.2869 124.585 17.3999C123.592 16.5047 122.843 15.4549 122.338 14.2505C121.842 13.0379 121.594 11.7358 121.594 10.3442ZM132.714 19.6338V20.8911C134.098 21.0539 135.095 21.3794 135.705 21.8677C136.324 22.3641 136.633 23.0029 136.633 23.7842C136.633 24.2318 136.519 24.6224 136.291 24.9561C136.071 25.2897 135.766 25.5664 135.376 25.7861C134.993 26.014 134.537 26.1849 134.008 26.2988C133.487 26.4128 132.922 26.4697 132.312 26.4697C131.669 26.4697 131.009 26.4046 130.334 26.2744C129.659 26.1523 129.044 25.9733 128.491 25.7373L129.309 23.772C129.846 23.9591 130.342 24.0894 130.798 24.1626C131.262 24.2358 131.697 24.2725 132.104 24.2725C132.43 24.2725 132.698 24.2521 132.91 24.2114C133.129 24.1789 133.304 24.13 133.435 24.0649C133.565 24.008 133.654 23.9388 133.703 23.8574C133.76 23.7842 133.789 23.7069 133.789 23.6255C133.789 23.5034 133.736 23.3895 133.63 23.2837C133.524 23.186 133.345 23.1006 133.093 23.0273C132.841 22.9541 132.499 22.8971 132.067 22.8564C131.636 22.8158 131.099 22.7954 130.456 22.7954V19.6338H132.714ZM152.209 0.92041H156.311L165.539 20H161.474L159.948 16.7896H148.803L147.326 20H143.249L152.209 0.92041ZM158.422 13.6035L154.296 4.93652L150.28 13.6035H158.422ZM183.313 0.92041H187.414L196.643 20H192.578L191.052 16.7896H179.907L178.43 20H174.353L183.313 0.92041ZM189.526 13.6035L185.4 4.93652L181.384 13.6035H189.526Z" fill="white"/>
<path d="M3.946 74.322C3.946 72.826 4.28333 71.484 4.958 70.296C5.63267 69.0933 6.54933 68.1547 7.708 67.48C8.88133 66.8053 10.1793 66.468 11.602 66.468C13.274 66.468 14.7333 66.8713 15.98 67.678C17.2267 68.4847 18.136 69.6287 18.708 71.11H16.31C15.8847 70.186 15.2687 69.4747 14.462 68.976C13.67 68.4773 12.7167 68.228 11.602 68.228C10.5313 68.228 9.57067 68.4773 8.72 68.976C7.86933 69.4747 7.202 70.186 6.718 71.11C6.234 72.0193 5.992 73.09 5.992 74.322C5.992 75.5393 6.234 76.61 6.718 77.534C7.202 78.4433 7.86933 79.1473 8.72 79.646C9.57067 80.1447 10.5313 80.394 11.602 80.394C12.7167 80.394 13.67 80.152 14.462 79.668C15.2687 79.1693 15.8847 78.458 16.31 77.534H18.708C18.136 79.0007 17.2267 80.1373 15.98 80.944C14.7333 81.736 13.274 82.132 11.602 82.132C10.1793 82.132 8.88133 81.802 7.708 81.142C6.54933 80.4673 5.63267 79.536 4.958 78.348C4.28333 77.16 3.946 75.818 3.946 74.322ZM23.6901 71.902C24.0421 71.2127 24.5408 70.6773 25.1861 70.296C25.8461 69.9147 26.6455 69.724 27.5841 69.724V71.792H27.0561C24.8121 71.792 23.6901 73.0093 23.6901 75.444V82H21.6881V69.944H23.6901V71.902ZM30.9292 67.986C30.5478 67.986 30.2252 67.854 29.9612 67.59C29.6972 67.326 29.5652 67.0033 29.5652 66.622C29.5652 66.2407 29.6972 65.918 29.9612 65.654C30.2252 65.39 30.5478 65.258 30.9292 65.258C31.2958 65.258 31.6038 65.39 31.8532 65.654C32.1172 65.918 32.2492 66.2407 32.2492 66.622C32.2492 67.0033 32.1172 67.326 31.8532 67.59C31.6038 67.854 31.2958 67.986 30.9292 67.986ZM31.8972 69.944V82H29.8952V69.944H31.8972ZM34.5612 75.928C34.5612 74.696 34.8106 73.618 35.3092 72.694C35.8079 71.7553 36.4899 71.0293 37.3552 70.516C38.2352 70.0027 39.2106 69.746 40.2812 69.746C41.3372 69.746 42.2539 69.9733 43.0312 70.428C43.8086 70.8827 44.3879 71.4547 44.7692 72.144V69.944H46.7932V82H44.7692V79.756C44.3732 80.46 43.7792 81.0467 42.9872 81.516C42.2099 81.9707 41.3006 82.198 40.2592 82.198C39.1886 82.198 38.2206 81.934 37.3552 81.406C36.4899 80.878 35.8079 80.1373 35.3092 79.184C34.8106 78.2307 34.5612 77.1453 34.5612 75.928ZM44.7692 75.95C44.7692 75.0407 44.5859 74.2487 44.2192 73.574C43.8526 72.8993 43.3539 72.386 42.7232 72.034C42.1072 71.6673 41.4252 71.484 40.6772 71.484C39.9292 71.484 39.2472 71.66 38.6312 72.012C38.0152 72.364 37.5239 72.8773 37.1572 73.552C36.7906 74.2267 36.6072 75.0187 36.6072 75.928C36.6072 76.852 36.7906 77.6587 37.1572 78.348C37.5239 79.0227 38.0152 79.5433 38.6312 79.91C39.2472 80.262 39.9292 80.438 40.6772 80.438C41.4252 80.438 42.1072 80.262 42.7232 79.91C43.3539 79.5433 43.8526 79.0227 44.2192 78.348C44.5859 77.6587 44.7692 76.8593 44.7692 75.95ZM56.0504 69.724C57.5171 69.724 58.7051 70.1713 59.6144 71.066C60.5238 71.946 60.9784 73.222 60.9784 74.894V82H58.9984V75.18C58.9984 73.9773 58.6978 73.0607 58.0964 72.43C57.4951 71.7847 56.6738 71.462 55.6324 71.462C54.5764 71.462 53.7331 71.792 53.1024 72.452C52.4864 73.112 52.1784 74.0727 52.1784 75.334V82H50.1764V69.944H52.1784V71.66C52.5744 71.044 53.1098 70.5673 53.7844 70.23C54.4738 69.8927 55.2291 69.724 56.0504 69.724ZM63.5007 75.928C63.5007 74.696 63.75 73.618 64.2487 72.694C64.7474 71.7553 65.4294 71.0293 66.2947 70.516C67.1747 70.0027 68.1574 69.746 69.2427 69.746C70.1814 69.746 71.054 69.966 71.8607 70.406C72.6674 70.8313 73.2834 71.396 73.7087 72.1V65.72H75.7327V82H73.7087V79.734C73.3127 80.4527 72.726 81.0467 71.9487 81.516C71.1714 81.9707 70.262 82.198 69.2207 82.198C68.15 82.198 67.1747 81.934 66.2947 81.406C65.4294 80.878 64.7474 80.1373 64.2487 79.184C63.75 78.2307 63.5007 77.1453 63.5007 75.928ZM73.7087 75.95C73.7087 75.0407 73.5254 74.2487 73.1587 73.574C72.792 72.8993 72.2934 72.386 71.6627 72.034C71.0467 71.6673 70.3647 71.484 69.6167 71.484C68.8687 71.484 68.1867 71.66 67.5707 72.012C66.9547 72.364 66.4634 72.8773 66.0967 73.552C65.73 74.2267 65.5467 75.0187 65.5467 75.928C65.5467 76.852 65.73 77.6587 66.0967 78.348C66.4634 79.0227 66.9547 79.5433 67.5707 79.91C68.1867 80.262 68.8687 80.438 69.6167 80.438C70.3647 80.438 71.0467 80.262 71.6627 79.91C72.2934 79.5433 72.792 79.0227 73.1587 78.348C73.5254 77.6587 73.7087 76.8593 73.7087 75.95ZM84.3739 82.198C83.2445 82.198 82.2179 81.9413 81.2939 81.428C80.3845 80.9147 79.6659 80.1887 79.1379 79.25C78.6245 78.2967 78.3679 77.1967 78.3679 75.95C78.3679 74.718 78.6319 73.6327 79.1599 72.694C79.7025 71.7407 80.4359 71.0147 81.3599 70.516C82.2839 70.0027 83.3179 69.746 84.4619 69.746C85.6059 69.746 86.6399 70.0027 87.5639 70.516C88.4879 71.0147 89.2139 71.7333 89.7419 72.672C90.2845 73.6107 90.5559 74.7033 90.5559 75.95C90.5559 77.1967 90.2772 78.2967 89.7199 79.25C89.1772 80.1887 88.4365 80.9147 87.4979 81.428C86.5592 81.9413 85.5179 82.198 84.3739 82.198ZM84.3739 80.438C85.0925 80.438 85.7672 80.2693 86.3979 79.932C87.0285 79.5947 87.5345 79.0887 87.9159 78.414C88.3119 77.7393 88.5099 76.918 88.5099 75.95C88.5099 74.982 88.3192 74.1607 87.9379 73.486C87.5565 72.8113 87.0579 72.3127 86.4419 71.99C85.8259 71.6527 85.1585 71.484 84.4399 71.484C83.7065 71.484 83.0319 71.6527 82.4159 71.99C81.8145 72.3127 81.3305 72.8113 80.9639 73.486C80.5972 74.1607 80.4139 74.982 80.4139 75.95C80.4139 76.9327 80.5899 77.7613 80.9419 78.436C81.3085 79.1107 81.7925 79.6167 82.3939 79.954C82.9952 80.2767 83.6552 80.438 84.3739 80.438ZM105.037 69.724C105.947 69.724 106.768 69.922 107.501 70.318C108.235 70.6993 108.807 71.2787 109.217 72.056C109.643 72.8333 109.855 73.7793 109.855 74.894V82H107.875V75.18C107.875 73.9773 107.575 73.0607 106.973 72.43C106.372 71.7847 105.551 71.462 104.509 71.462C103.453 71.462 102.61 71.792 101.979 72.452C101.363 73.112 101.055 74.0727 101.055 75.334V82H99.0534V65.72H101.055V71.66C101.451 71.044 101.994 70.5673 102.683 70.23C103.387 69.8927 104.172 69.724 105.037 69.724ZM118.384 82.198C117.254 82.198 116.228 81.9413 115.304 81.428C114.394 80.9147 113.676 80.1887 113.148 79.25C112.634 78.2967 112.378 77.1967 112.378 75.95C112.378 74.718 112.642 73.6327 113.17 72.694C113.712 71.7407 114.446 71.0147 115.37 70.516C116.294 70.0027 117.328 69.746 118.472 69.746C119.616 69.746 120.65 70.0027 121.574 70.516C122.498 71.0147 123.224 71.7333 123.752 72.672C124.294 73.6107 124.566 74.7033 124.566 75.95C124.566 77.1967 124.287 78.2967 123.73 79.25C123.187 80.1887 122.446 80.9147 121.508 81.428C120.569 81.9413 119.528 82.198 118.384 82.198ZM118.384 80.438C119.102 80.438 119.777 80.2693 120.408 79.932C121.038 79.5947 121.544 79.0887 121.926 78.414C122.322 77.7393 122.52 76.918 122.52 75.95C122.52 74.982 122.329 74.1607 121.948 73.486C121.566 72.8113 121.068 72.3127 120.452 71.99C119.836 71.6527 119.168 71.484 118.45 71.484C117.716 71.484 117.042 71.6527 116.426 71.99C115.824 72.3127 115.34 72.8113 114.974 73.486C114.607 74.1607 114.424 74.982 114.424 75.95C114.424 76.9327 114.6 77.7613 114.952 78.436C115.318 79.1107 115.802 79.6167 116.404 79.954C117.005 80.2767 117.665 80.438 118.384 80.438ZM128.276 67.986C127.895 67.986 127.572 67.854 127.308 67.59C127.059 67.326 126.934 67.0033 126.934 66.622C126.934 66.2407 127.059 65.918 127.308 65.654C127.572 65.39 127.895 65.258 128.276 65.258C128.657 65.258 128.973 65.39 129.222 65.654C129.486 65.918 129.618 66.2407 129.618 66.622C129.618 67.0033 129.486 67.326 129.222 67.59C128.973 67.854 128.657 67.986 128.276 67.986ZM129.266 84.618C129.266 85.6887 128.995 86.4733 128.452 86.972C127.909 87.4707 127.117 87.72 126.076 87.72H124.91V86.026H125.746C126.303 86.026 126.692 85.916 126.912 85.696C127.147 85.476 127.264 85.102 127.264 84.574V69.944H129.266V84.618ZM143.655 75.51C143.655 75.8913 143.633 76.2947 143.589 76.72H133.953C134.026 77.908 134.43 78.8393 135.163 79.514C135.911 80.174 136.813 80.504 137.869 80.504C138.734 80.504 139.453 80.306 140.025 79.91C140.612 79.4993 141.022 78.9567 141.257 78.282H143.413C143.09 79.4407 142.445 80.3867 141.477 81.12C140.509 81.8387 139.306 82.198 137.869 82.198C136.725 82.198 135.698 81.9413 134.789 81.428C133.894 80.9147 133.19 80.1887 132.677 79.25C132.164 78.2967 131.907 77.1967 131.907 75.95C131.907 74.7033 132.156 73.6107 132.655 72.672C133.154 71.7333 133.85 71.0147 134.745 70.516C135.654 70.0027 136.696 69.746 137.869 69.746C139.013 69.746 140.025 69.9953 140.905 70.494C141.785 70.9927 142.46 71.682 142.929 72.562C143.413 73.4273 143.655 74.41 143.655 75.51ZM141.587 75.092C141.587 74.3293 141.418 73.6767 141.081 73.134C140.744 72.5767 140.282 72.1587 139.695 71.88C139.123 71.5867 138.485 71.44 137.781 71.44C136.769 71.44 135.904 71.7627 135.185 72.408C134.481 73.0533 134.078 73.948 133.975 75.092H141.587ZM157.421 82.198C156.291 82.198 155.265 81.9413 154.341 81.428C153.431 80.9147 152.713 80.1887 152.185 79.25C151.671 78.2967 151.415 77.1967 151.415 75.95C151.415 74.718 151.679 73.6327 152.207 72.694C152.749 71.7407 153.483 71.0147 154.407 70.516C155.331 70.0027 156.365 69.746 157.509 69.746C158.653 69.746 159.687 70.0027 160.611 70.516C161.535 71.0147 162.261 71.7333 162.789 72.672C163.331 73.6107 163.603 74.7033 163.603 75.95C163.603 77.1967 163.324 78.2967 162.767 79.25C162.224 80.1887 161.483 80.9147 160.545 81.428C159.606 81.9413 158.565 82.198 157.421 82.198ZM157.421 80.438C158.139 80.438 158.814 80.2693 159.445 79.932C160.075 79.5947 160.581 79.0887 160.963 78.414C161.359 77.7393 161.557 76.918 161.557 75.95C161.557 74.982 161.366 74.1607 160.985 73.486C160.603 72.8113 160.105 72.3127 159.489 71.99C158.873 71.6527 158.205 71.484 157.487 71.484C156.753 71.484 156.079 71.6527 155.463 71.99C154.861 72.3127 154.377 72.8113 154.011 73.486C153.644 74.1607 153.461 74.982 153.461 75.95C153.461 76.9327 153.637 77.7613 153.989 78.436C154.355 79.1107 154.839 79.6167 155.441 79.954C156.042 80.2767 156.702 80.438 157.421 80.438ZM176.368 82.198C175.444 82.198 174.616 82.044 173.882 81.736C173.149 81.4133 172.57 80.9733 172.144 80.416C171.719 79.844 171.484 79.1913 171.44 78.458H173.508C173.567 79.0593 173.846 79.5507 174.344 79.932C174.858 80.3133 175.525 80.504 176.346 80.504C177.109 80.504 177.71 80.3353 178.15 79.998C178.59 79.6607 178.81 79.2353 178.81 78.722C178.81 78.194 178.576 77.8053 178.106 77.556C177.637 77.292 176.911 77.0353 175.928 76.786C175.034 76.5513 174.3 76.3167 173.728 76.082C173.171 75.8327 172.687 75.4733 172.276 75.004C171.88 74.52 171.682 73.8893 171.682 73.112C171.682 72.496 171.866 71.9313 172.232 71.418C172.599 70.9047 173.12 70.5013 173.794 70.208C174.469 69.9 175.239 69.746 176.104 69.746C177.439 69.746 178.517 70.0833 179.338 70.758C180.16 71.4327 180.6 72.3567 180.658 73.53H178.656C178.612 72.8993 178.356 72.3933 177.886 72.012C177.432 71.6307 176.816 71.44 176.038 71.44C175.32 71.44 174.748 71.594 174.322 71.902C173.897 72.21 173.684 72.6133 173.684 73.112C173.684 73.508 173.809 73.838 174.058 74.102C174.322 74.3513 174.645 74.5567 175.026 74.718C175.422 74.8647 175.965 75.0333 176.654 75.224C177.52 75.4587 178.224 75.6933 178.766 75.928C179.309 76.148 179.771 76.4853 180.152 76.94C180.548 77.3947 180.754 77.9887 180.768 78.722C180.768 79.382 180.585 79.976 180.218 80.504C179.852 81.032 179.331 81.45 178.656 81.758C177.996 82.0513 177.234 82.198 176.368 82.198ZM194.594 75.51C194.594 75.8913 194.572 76.2947 194.528 76.72H184.892C184.966 77.908 185.369 78.8393 186.102 79.514C186.85 80.174 187.752 80.504 188.808 80.504C189.674 80.504 190.392 80.306 190.964 79.91C191.551 79.4993 191.962 78.9567 192.196 78.282H194.352C194.03 79.4407 193.384 80.3867 192.416 81.12C191.448 81.8387 190.246 82.198 188.808 82.198C187.664 82.198 186.638 81.9413 185.728 81.428C184.834 80.9147 184.13 80.1887 183.616 79.25C183.103 78.2967 182.846 77.1967 182.846 75.95C182.846 74.7033 183.096 73.6107 183.594 72.672C184.093 71.7333 184.79 71.0147 185.684 70.516C186.594 70.0027 187.635 69.746 188.808 69.746C189.952 69.746 190.964 69.9953 191.844 70.494C192.724 70.9927 193.399 71.682 193.868 72.562C194.352 73.4273 194.594 74.41 194.594 75.51ZM192.526 75.092C192.526 74.3293 192.358 73.6767 192.02 73.134C191.683 72.5767 191.221 72.1587 190.634 71.88C190.062 71.5867 189.424 71.44 188.72 71.44C187.708 71.44 186.843 71.7627 186.124 72.408C185.42 73.0533 185.017 73.948 184.914 75.092H192.526ZM207.929 69.944V82H205.927V80.218C205.546 80.834 205.01 81.318 204.321 81.67C203.646 82.0073 202.898 82.176 202.077 82.176C201.138 82.176 200.295 81.9853 199.547 81.604C198.799 81.208 198.205 80.6213 197.765 79.844C197.34 79.0667 197.127 78.1207 197.127 77.006V69.944H199.107V76.742C199.107 77.93 199.408 78.8467 200.009 79.492C200.61 80.1227 201.432 80.438 202.473 80.438C203.544 80.438 204.387 80.108 205.003 79.448C205.619 78.788 205.927 77.8273 205.927 76.566V69.944H207.929ZM216.426 75.928C216.426 74.696 216.676 73.618 217.174 72.694C217.673 71.7553 218.355 71.0293 219.22 70.516C220.1 70.0027 221.076 69.746 222.146 69.746C223.202 69.746 224.119 69.9733 224.896 70.428C225.674 70.8827 226.253 71.4547 226.634 72.144V69.944H228.658V82H226.634V79.756C226.238 80.46 225.644 81.0467 224.852 81.516C224.075 81.9707 223.166 82.198 222.124 82.198C221.054 82.198 220.086 81.934 219.22 81.406C218.355 80.878 217.673 80.1373 217.174 79.184C216.676 78.2307 216.426 77.1453 216.426 75.928ZM226.634 75.95C226.634 75.0407 226.451 74.2487 226.084 73.574C225.718 72.8993 225.219 72.386 224.588 72.034C223.972 71.6673 223.29 71.484 222.542 71.484C221.794 71.484 221.112 71.66 220.496 72.012C219.88 72.364 219.389 72.8773 219.022 73.552C218.656 74.2267 218.472 75.0187 218.472 75.928C218.472 76.852 218.656 77.6587 219.022 78.348C219.389 79.0227 219.88 79.5433 220.496 79.91C221.112 80.262 221.794 80.438 222.542 80.438C223.29 80.438 223.972 80.262 224.588 79.91C225.219 79.5433 225.718 79.0227 226.084 78.348C226.451 77.6587 226.634 76.8593 226.634 75.95ZM246.54 69.724C247.478 69.724 248.314 69.922 249.048 70.318C249.781 70.6993 250.36 71.2787 250.786 72.056C251.211 72.8333 251.424 73.7793 251.424 74.894V82H249.444V75.18C249.444 73.9773 249.143 73.0607 248.542 72.43C247.955 71.7847 247.156 71.462 246.144 71.462C245.102 71.462 244.274 71.7993 243.658 72.474C243.042 73.134 242.734 74.0947 242.734 75.356V82H240.754V75.18C240.754 73.9773 240.453 73.0607 239.852 72.43C239.265 71.7847 238.466 71.462 237.454 71.462C236.412 71.462 235.584 71.7993 234.968 72.474C234.352 73.134 234.044 74.0947 234.044 75.356V82H232.042V69.944H234.044V71.682C234.44 71.0513 234.968 70.5673 235.628 70.23C236.302 69.8927 237.043 69.724 237.85 69.724C238.862 69.724 239.756 69.9513 240.534 70.406C241.311 70.8607 241.89 71.528 242.272 72.408C242.609 71.5573 243.166 70.8973 243.944 70.428C244.721 69.9587 245.586 69.724 246.54 69.724ZM253.96 75.928C253.96 74.696 254.209 73.618 254.708 72.694C255.206 71.7553 255.888 71.0293 256.754 70.516C257.634 70.0027 258.609 69.746 259.68 69.746C260.736 69.746 261.652 69.9733 262.43 70.428C263.207 70.8827 263.786 71.4547 264.168 72.144V69.944H266.192V82H264.168V79.756C263.772 80.46 263.178 81.0467 262.386 81.516C261.608 81.9707 260.699 82.198 259.658 82.198C258.587 82.198 257.619 81.934 256.754 81.406C255.888 80.878 255.206 80.1373 254.708 79.184C254.209 78.2307 253.96 77.1453 253.96 75.928ZM264.168 75.95C264.168 75.0407 263.984 74.2487 263.618 73.574C263.251 72.8993 262.752 72.386 262.122 72.034C261.506 71.6673 260.824 71.484 260.076 71.484C259.328 71.484 258.646 71.66 258.03 72.012C257.414 72.364 256.922 72.8773 256.556 73.552C256.189 74.2267 256.006 75.0187 256.006 75.928C256.006 76.852 256.189 77.6587 256.556 78.348C256.922 79.0227 257.414 79.5433 258.03 79.91C258.646 80.262 259.328 80.438 260.076 80.438C260.824 80.438 261.506 80.262 262.122 79.91C262.752 79.5433 263.251 79.0227 263.618 78.348C263.984 77.6587 264.168 76.8593 264.168 75.95ZM275.449 69.724C276.916 69.724 278.104 70.1713 279.013 71.066C279.922 71.946 280.377 73.222 280.377 74.894V82H278.397V75.18C278.397 73.9773 278.096 73.0607 277.495 72.43C276.894 71.7847 276.072 71.462 275.031 71.462C273.975 71.462 273.132 71.792 272.501 72.452C271.885 73.112 271.577 74.0727 271.577 75.334V82H269.575V69.944H271.577V71.66C271.973 71.044 272.508 70.5673 273.183 70.23C273.872 69.8927 274.628 69.724 275.449 69.724ZM289.631 69.724C290.54 69.724 291.362 69.922 292.095 70.318C292.828 70.6993 293.4 71.2787 293.811 72.056C294.236 72.8333 294.449 73.7793 294.449 74.894V82H292.469V75.18C292.469 73.9773 292.168 73.0607 291.567 72.43C290.966 71.7847 290.144 71.462 289.103 71.462C288.047 71.462 287.204 71.792 286.573 72.452C285.957 73.112 285.649 74.0727 285.649 75.334V82H283.647V65.72H285.649V71.66C286.045 71.044 286.588 70.5673 287.277 70.23C287.981 69.8927 288.766 69.724 289.631 69.724ZM296.971 75.928C296.971 74.696 297.221 73.618 297.719 72.694C298.218 71.7553 298.9 71.0293 299.765 70.516C300.645 70.0027 301.621 69.746 302.691 69.746C303.747 69.746 304.664 69.9733 305.441 70.428C306.219 70.8827 306.798 71.4547 307.179 72.144V69.944H309.203V82H307.179V79.756C306.783 80.46 306.189 81.0467 305.397 81.516C304.62 81.9707 303.711 82.198 302.669 82.198C301.599 82.198 300.631 81.934 299.765 81.406C298.9 80.878 298.218 80.1373 297.719 79.184C297.221 78.2307 296.971 77.1453 296.971 75.928ZM307.179 75.95C307.179 75.0407 306.996 74.2487 306.629 73.574C306.263 72.8993 305.764 72.386 305.133 72.034C304.517 71.6673 303.835 71.484 303.087 71.484C302.339 71.484 301.657 71.66 301.041 72.012C300.425 72.364 299.934 72.8773 299.567 73.552C299.201 74.2267 299.017 75.0187 299.017 75.928C299.017 76.852 299.201 77.6587 299.567 78.348C299.934 79.0227 300.425 79.5433 301.041 79.91C301.657 80.262 302.339 80.438 303.087 80.438C303.835 80.438 304.517 80.262 305.133 79.91C305.764 79.5433 306.263 79.0227 306.629 78.348C306.996 77.6587 307.179 76.8593 307.179 75.95ZM300.249 68.646C300.352 67.898 300.594 67.326 300.975 66.93C301.371 66.534 301.863 66.336 302.449 66.336C302.728 66.336 302.963 66.3873 303.153 66.49C303.359 66.578 303.601 66.71 303.879 66.886C304.085 67.0327 304.268 67.15 304.429 67.238C304.591 67.3113 304.767 67.348 304.957 67.348C305.207 67.348 305.419 67.2673 305.595 67.106C305.771 66.9447 305.881 66.71 305.925 66.402H307.069C306.981 67.1353 306.739 67.7 306.343 68.096C305.947 68.492 305.456 68.69 304.869 68.69C304.591 68.69 304.341 68.646 304.121 68.558C303.916 68.4553 303.681 68.3087 303.417 68.118C303.183 67.9713 302.992 67.8613 302.845 67.788C302.713 67.7147 302.552 67.678 302.361 67.678C302.112 67.678 301.899 67.7587 301.723 67.92C301.562 68.0813 301.459 68.3233 301.415 68.646H300.249ZM313.225 82.132C312.843 82.132 312.521 82 312.257 81.736C311.993 81.472 311.861 81.1493 311.861 80.768C311.861 80.3867 311.993 80.064 312.257 79.8C312.521 79.536 312.843 79.404 313.225 79.404C313.591 79.404 313.899 79.536 314.149 79.8C314.413 80.064 314.545 80.3867 314.545 80.768C314.545 81.1493 314.413 81.472 314.149 81.736C313.899 82 313.591 82.132 313.225 82.132Z" fill="white"/>
</svg>
