<svg width="19" height="19" viewBox="0 0 19 19" fill="none" xmlns="http://www.w3.org/2000/svg">
<path fill-rule="evenodd" clip-rule="evenodd" d="M9.49709 2.92527C7.71691 2.92527 7.49406 2.9327 6.79492 2.96462C6.09709 2.99654 5.62037 3.10761 5.20351 3.26983C4.76655 3.43425 4.37022 3.69223 4.0425 4.0263C3.7092 4.35387 3.45123 4.75019 3.28656 5.18768C3.12532 5.60483 3.0139 6.08232 2.982 6.78063C2.95054 7.47982 2.94267 7.70238 2.94267 9.48424C2.94267 11.2661 2.9501 11.4887 2.982 12.1883C3.0139 12.8866 3.12489 13.3636 3.287 13.7808C3.4513 14.2181 3.7091 14.6147 4.04294 14.9426C4.37029 15.2761 4.76633 15.5343 5.20351 15.6991C5.62037 15.8609 6.09709 15.9719 6.79492 16.0038C7.49406 16.0358 7.71691 16.0432 9.49709 16.0432C11.2773 16.0432 11.5001 16.0358 12.1993 16.0038C12.8971 15.9719 13.3738 15.8609 13.7907 15.6986C14.2276 15.5342 14.624 15.2762 14.9517 14.9422C15.285 14.6146 15.5429 14.2183 15.7076 13.7808C15.8693 13.3636 15.9803 12.8866 16.0122 12.1883C16.0441 11.4887 16.0515 11.2657 16.0515 9.48424C16.0515 7.70282 16.0441 7.47982 16.0122 6.78019C15.9803 6.08188 15.8693 5.60483 15.7072 5.18768C15.5426 4.75 15.2846 4.35352 14.9512 4.02586C14.6239 3.69233 14.2278 3.43418 13.7907 3.2694C13.3738 3.10805 12.8966 2.99654 12.1988 2.96462C11.5001 2.93314 11.2777 2.92527 9.49709 2.92527ZM9.49709 4.1072C11.2471 4.1072 11.4547 4.11375 12.1459 4.14524C12.7848 4.17453 13.1317 4.28079 13.3629 4.3713C13.6688 4.4898 13.8872 4.63235 14.1166 4.86148C14.346 5.09104 14.4881 5.30967 14.6065 5.61576C14.6965 5.84707 14.8031 6.19426 14.8324 6.83354C14.8638 7.52529 14.8704 7.73299 14.8704 9.48424C14.8704 11.2355 14.8638 11.4432 14.8324 12.1349C14.8031 12.7742 14.6969 13.1214 14.6065 13.3527C14.5016 13.6376 14.3342 13.8954 14.1166 14.107C13.9052 14.3247 13.6476 14.4922 13.3629 14.5972C13.1317 14.6872 12.7848 14.7939 12.1459 14.8232C11.4547 14.8547 11.2476 14.8613 9.49709 14.8613C7.74662 14.8613 7.5395 14.8547 6.84823 14.8232C6.20939 14.7939 5.86245 14.6877 5.63129 14.5972C5.34659 14.4922 5.08903 14.3247 4.87754 14.107C4.66001 13.8953 4.49263 13.6376 4.3877 13.3527C4.29769 13.1214 4.19107 12.7742 4.16179 12.1349C4.13033 11.4432 4.12378 11.2355 4.12378 9.48424C4.12378 7.73299 4.13033 7.52529 4.16179 6.83354C4.19107 6.19426 4.29725 5.84707 4.3877 5.61576C4.50612 5.30967 4.64857 5.09104 4.87754 4.86148C5.089 4.64374 5.34657 4.47624 5.63129 4.3713C5.86245 4.28123 6.20939 4.17453 6.84823 4.14524C7.5395 4.11375 7.74706 4.1072 9.49709 4.1072Z" fill="white"/>
<path fill-rule="evenodd" clip-rule="evenodd" d="M9.49687 11.6727C9.20967 11.6727 8.92528 11.6161 8.65994 11.5062C8.3946 11.3962 8.15351 11.235 7.95043 11.0317C7.74735 10.8285 7.58626 10.5873 7.47635 10.3217C7.36645 10.0562 7.30988 9.77164 7.30988 9.48424C7.30988 9.19684 7.36645 8.91226 7.47635 8.64673C7.58626 8.38121 7.74735 8.13995 7.95043 7.93673C8.15351 7.73351 8.3946 7.5723 8.65994 7.46232C8.92528 7.35234 9.20967 7.29573 9.49687 7.29573C10.0769 7.29573 10.6332 7.52631 11.0433 7.93673C11.4534 8.34716 11.6839 8.90381 11.6839 9.48424C11.6839 10.0647 11.4534 10.6213 11.0433 11.0317C10.6332 11.4422 10.0769 11.6727 9.49687 11.6727ZM9.49687 6.11293C8.60336 6.11293 7.74645 6.46812 7.11465 7.10036C6.48284 7.73261 6.1279 8.59011 6.1279 9.48424C6.1279 10.3784 6.48284 11.2359 7.11465 11.8681C7.74645 12.5004 8.60336 12.8555 9.49687 12.8555C10.3904 12.8555 11.2473 12.5004 11.8791 11.8681C12.5109 11.2359 12.8658 10.3784 12.8658 9.48424C12.8658 8.59011 12.5109 7.73261 11.8791 7.10036C11.2473 6.46812 10.3904 6.11293 9.49687 6.11293ZM13.8459 6.05171C13.8459 6.26307 13.762 6.46577 13.6127 6.61522C13.4633 6.76467 13.2608 6.84863 13.0496 6.84863C12.8384 6.84863 12.6358 6.76467 12.4865 6.61522C12.3371 6.46577 12.2532 6.26307 12.2532 6.05171C12.2532 5.84036 12.3371 5.63766 12.4865 5.48821C12.6358 5.33876 12.8384 5.2548 13.0496 5.2548C13.2608 5.2548 13.4633 5.33876 13.6127 5.48821C13.762 5.63766 13.8459 5.84036 13.8459 6.05171Z" fill="white"/>
</svg>
