<svg width="72" height="22" viewBox="0 0 72 22" fill="none" xmlns="http://www.w3.org/2000/svg">
<path d="M16.2664 9.91435H19.2451V10.9207C20.0367 10.4716 20.7932 10.1561 21.5138 9.97513C22.2352 9.79412 22.941 9.70361 23.632 9.70361C24.5377 9.70361 25.3759 9.836 26.1473 10.1008C26.9186 10.3655 27.5859 10.76 28.1499 11.2828C28.7132 11.8062 29.1543 12.4587 29.4731 13.2395C29.7919 14.0209 29.9513 14.9253 29.9513 15.9513V21.7877H26.9828V16.4343C26.9828 15.7838 26.8902 15.2016 26.7059 14.6889C26.5215 14.1756 26.256 13.7433 25.9109 13.3908C25.5651 13.0389 25.1463 12.7701 24.6532 12.5857C24.1602 12.4013 23.6083 12.3087 22.9978 12.3087C22.6756 12.3087 22.3453 12.3425 22.0069 12.4094C21.6678 12.4769 21.3362 12.5722 21.0106 12.6964C20.6851 12.8207 20.3717 12.9747 20.0698 13.1591C19.7679 13.3435 19.493 13.5536 19.2444 13.7879V21.7877H16.2658V9.91367L16.2664 9.91435Z" fill="white"/>
<path d="M43.8055 15.8818C43.8055 15.0098 43.9649 14.1966 44.2837 13.4414C44.6025 12.687 45.0685 12.0325 45.6825 11.4793C46.2965 10.9261 47.0475 10.4918 47.9364 10.1764C48.8253 9.86099 49.8398 9.70361 50.9799 9.70361C51.4763 9.70361 51.9761 9.73401 52.4793 9.79412C52.9825 9.85423 53.4668 9.94001 53.9335 10.0508C54.3996 10.1616 54.8373 10.2926 55.2466 10.4432C55.6559 10.5945 56.0112 10.76 56.3131 10.9417L54.9345 13.1854C54.2841 12.8835 53.6681 12.662 53.0879 12.5215C52.5077 12.3803 51.9187 12.3101 51.3217 12.3101C50.6375 12.3101 50.0235 12.3992 49.4804 12.5769C48.9374 12.7545 48.4761 13.0031 48.0965 13.3212C47.7176 13.64 47.4292 14.0155 47.2313 14.4485C47.0334 14.8814 46.9348 15.3522 46.9348 15.8622C46.9348 16.3721 47.0401 16.8436 47.2515 17.2758C47.4629 17.7088 47.7615 18.0809 48.1471 18.393C48.5328 18.705 48.9989 18.9496 49.546 19.1272C50.0924 19.3048 50.7016 19.394 51.3723 19.394C52.1099 19.394 52.8062 19.29 53.4601 19.0819C54.1139 18.8739 54.7231 18.5956 55.2864 18.2464L56.665 20.4909C56.3097 20.7057 55.924 20.9049 55.508 21.0893C55.0919 21.2737 54.6475 21.4331 54.1747 21.5675C53.7019 21.7019 53.2054 21.8073 52.6853 21.8843C52.1653 21.9613 51.627 21.9998 51.0704 21.9998C49.9364 21.9998 48.9205 21.8458 48.0215 21.5371C47.1225 21.2284 46.3613 20.8009 45.7372 20.2545C45.1131 19.7081 44.6356 19.0623 44.3033 18.3173C43.971 17.573 43.8048 16.7612 43.8048 15.8824" fill="white"/>
<path d="M60.9707 17.9452C60.9707 18.1397 61.0214 18.3261 61.122 18.5038C61.2226 18.6814 61.3834 18.8395 61.6049 18.9766C61.8265 19.1144 62.1095 19.2244 62.4553 19.3089C62.8004 19.3926 63.2185 19.4345 63.7082 19.4345C64.2317 19.4345 64.7376 19.3879 65.2279 19.294C65.7176 19.2001 66.1735 19.0759 66.5963 18.9219C67.0192 18.7679 67.4014 18.5902 67.7432 18.3883C68.0857 18.187 68.3707 17.9796 68.5983 17.7642V17.2407C68.1417 17.1131 67.6905 17.0063 67.2447 16.9185C66.7983 16.8314 66.3728 16.7625 65.9668 16.7125C65.5609 16.6626 65.1786 16.6274 64.82 16.6072C64.4613 16.5869 64.1472 16.5768 63.8791 16.5768C63.3225 16.5768 62.8592 16.6132 62.4904 16.6875C62.1216 16.7612 61.8231 16.8605 61.5948 16.9841C61.3665 17.1083 61.2057 17.2542 61.1119 17.4217C61.018 17.5899 60.9707 17.7642 60.9707 17.9452ZM57.8313 18.0458C57.8313 17.4758 57.9556 16.9557 58.2035 16.4863C58.4513 16.0168 58.8242 15.6129 59.3206 15.2739C59.8171 14.9355 60.4358 14.6734 61.1774 14.489C61.9183 14.3046 62.7822 14.2121 63.7683 14.2121C64.4998 14.2121 65.2691 14.2661 66.0776 14.3728C66.8861 14.4802 67.7196 14.6444 68.578 14.8659C68.5443 14.4904 68.4301 14.1432 68.2356 13.8244C68.0411 13.5056 67.7709 13.2307 67.4258 12.999C67.0799 12.7674 66.6646 12.5884 66.1782 12.4607C65.6919 12.3337 65.1401 12.2696 64.5228 12.2696C64.1871 12.2696 63.8183 12.2898 63.4157 12.3297C63.0132 12.3702 62.5971 12.4303 62.1682 12.5107C61.7387 12.5911 61.3145 12.6917 60.895 12.8126C60.4756 12.9335 60.0852 13.0781 59.7225 13.2456L58.8168 10.8005C59.2659 10.6398 59.7475 10.4918 60.2608 10.3574C60.7741 10.2237 61.299 10.1075 61.8352 10.0103C62.3722 9.913 62.9085 9.83735 63.4455 9.78399C63.9818 9.73063 64.5018 9.70361 65.005 9.70361C67.2252 9.70361 68.8759 10.2703 69.9559 11.4043C71.0359 12.5384 71.5763 14.2756 71.5763 16.6166V21.7884H68.5976V20.6712C68.289 20.8522 67.9519 21.0231 67.5865 21.1845C67.2211 21.3453 66.8233 21.4865 66.3944 21.6074C65.9648 21.7283 65.5042 21.8235 65.0104 21.8944C64.5174 21.9647 63.9959 21.9998 63.4461 21.9998C62.5201 21.9998 61.7069 21.8991 61.0058 21.6979C60.3047 21.4966 59.7191 21.2183 59.2497 20.8624C58.7803 20.5071 58.4264 20.089 58.1879 19.6094C57.9495 19.1299 57.8306 18.6085 57.8306 18.0445" fill="white"/>
<mask id="mask0_1_1519" style="mask-type:luminance" maskUnits="userSpaceOnUse" x="32" y="8" width="12" height="14">
<path d="M43.2581 8.97461H32.1318V21.8658H43.2581V8.97461Z" fill="white"/>
</mask>
<g mask="url(#mask0_1_1519)">
<path d="M42.5875 21.789V19.0981H39.3063V9.51373H39.2968L39.3063 9.49414C39.3022 9.50089 39.2982 9.50765 39.2941 9.5144L33.1369 11.3718L33.224 14.106L36.2378 13.4211V19.0981H32.8019V21.789H42.5868H42.5875Z" fill="white"/>
</g>
<path d="M13.4032 21.7885V9.9043H10.4246V17.9041C10.2233 18.1189 9.9835 18.3168 9.70523 18.4978C9.42695 18.6788 9.12638 18.8348 8.80488 18.9658C8.4827 19.0969 8.14566 19.1989 7.79377 19.2725C7.44187 19.3468 7.09402 19.3833 6.75225 19.3833C6.02752 19.3833 5.42234 19.2941 4.93603 19.1165C4.44972 18.9388 4.06067 18.6889 3.76889 18.3667C3.4771 18.0452 3.2711 17.6575 3.1502 17.2043C3.0293 16.7518 2.96918 16.2499 2.96918 15.7001V14.4823H0V16.123C0 17.0557 0.114147 17.8858 0.342442 18.6133C0.570061 19.3414 0.931415 19.9547 1.42448 20.4545C1.91754 20.9543 2.55109 21.3346 3.32648 21.5966C4.1012 21.858 5.03194 21.9891 6.1187 21.9891C6.78265 21.9891 7.48374 21.8952 8.22199 21.7074C8.95955 21.5196 9.69442 21.2076 10.4259 20.7713V21.7878H13.4045L13.4032 21.7885Z" fill="white"/>
<path d="M0 9.9043V14.4823L2.96851 11.655V9.9043H0Z" fill="white"/>
<path d="M2.99797 0.0512695V0.918519H1.21754V1.85534H2.55016V2.6976H1.21754V4.49559H0.153065V0.0512695H2.99864H2.99797Z" fill="white"/>
<path d="M10.6343 3.71006H9.00313L8.74174 4.49491H7.62728L9.20846 0.0512695H10.4411L12.023 4.49559H10.8964L10.635 3.71074L10.6343 3.71006ZM10.3601 2.87456L9.81837 1.24745L9.28276 2.87456H10.3601Z" fill="white"/>
<path d="M16.9661 1.09217C17.1532 0.748374 17.4133 0.480229 17.7476 0.288408C18.0819 0.0965862 18.4608 0 18.8837 0C19.4024 0 19.8468 0.139138 20.2163 0.41809C20.5857 0.696366 20.8329 1.07663 20.9572 1.55754H19.7867C19.6996 1.37179 19.576 1.23063 19.4159 1.13337C19.2558 1.03611 19.0748 0.987476 18.8715 0.987476C18.5432 0.987476 18.2778 1.10365 18.0745 1.336C17.8712 1.56834 17.7692 1.87837 17.7692 2.26674C17.7692 2.65511 17.8705 2.96513 18.0745 3.19748C18.2778 3.42982 18.5432 3.546 18.8715 3.546C19.0748 3.546 19.2565 3.49737 19.4159 3.40011C19.576 3.30284 19.6989 3.16168 19.7867 2.97594H20.9572C20.8329 3.45684 20.5857 3.83576 20.2163 4.11201C19.8468 4.38826 19.4024 4.52672 18.8837 4.52672C18.4602 4.52672 18.0813 4.43081 17.7476 4.23899C17.4133 4.04717 17.1532 3.7797 16.9661 3.43793C16.779 3.09616 16.6858 2.70577 16.6858 2.26674C16.6858 1.82771 16.779 1.43664 16.9661 1.09217Z" fill="white"/>
<path d="M27.0138 0.0512695V2.70975C27.0138 2.97587 27.078 3.18053 27.207 3.32372C27.3354 3.46691 27.5245 3.53918 27.7737 3.53918C28.0229 3.53918 28.2134 3.46759 28.3465 3.32372C28.4795 3.18053 28.5457 2.9752 28.5457 2.70975V0.0512695H29.6102V2.70368C29.6102 3.10015 29.5271 3.43584 29.361 3.71006C29.1948 3.98429 28.9719 4.19097 28.6916 4.33078C28.4113 4.46992 28.0993 4.53949 27.7548 4.53949C27.4103 4.53949 27.1023 4.47127 26.8301 4.33348C26.5579 4.19637 26.3438 3.98969 26.1858 3.71277C26.0277 3.43652 25.9494 3.09948 25.9494 2.703V0.0512695H27.0138Z" fill="white"/>
<path d="M35.7742 3.65941H37.1689V4.49491H34.7097V0.0512695H35.7742V3.65941Z" fill="white"/>
<path d="M44.889 0.329546C45.2335 0.515289 45.5003 0.776004 45.6894 1.11169C45.8785 1.44738 45.9724 1.8344 45.9724 2.27343C45.9724 2.71246 45.8778 3.09407 45.6894 3.43179C45.5003 3.7695 45.2328 4.03089 44.8863 4.21664C44.5398 4.40238 44.1379 4.49491 43.6814 4.49491H42.0441V0.0512695H43.6814C44.142 0.0512695 44.5445 0.143803 44.889 0.329546ZM44.5527 3.2224C44.7769 2.99884 44.889 2.68206 44.889 2.27275C44.889 1.86344 44.7769 1.54464 44.5527 1.31702C44.3284 1.0894 44.015 0.975255 43.6125 0.975255H43.1079V3.55809H43.6125C44.015 3.55809 44.3284 3.44665 44.5527 3.2224Z" fill="white"/>
<path d="M53.6437 3.71006H52.0125L51.7511 4.49491H50.6367L52.2178 0.0512695H53.4505L55.0324 4.49559H53.9057L53.6443 3.71074L53.6437 3.71006ZM53.3694 2.87456L52.8278 1.24745L52.2921 2.87456H53.3694Z" fill="white"/>
<path d="M62.7172 0.329546C63.0616 0.515289 63.3284 0.776004 63.5176 1.11169C63.7067 1.44738 63.8006 1.8344 63.8006 2.27343C63.8006 2.71246 63.706 3.09407 63.5176 3.43179C63.3284 3.7695 63.061 4.03089 62.7145 4.21664C62.368 4.40238 61.9661 4.49491 61.5095 4.49491H59.8723V0.0512695H61.5095C61.9701 0.0512695 62.3727 0.143803 62.7172 0.329546ZM62.3808 3.2224C62.6051 2.99884 62.7172 2.68206 62.7172 2.27275C62.7172 1.86344 62.6051 1.54464 62.3808 1.31702C62.1566 1.0894 61.8432 0.975255 61.4406 0.975255H60.9361V3.55809H61.4406C61.8432 3.55809 62.1566 3.44665 62.3808 3.2224Z" fill="white"/>
<path d="M69.8189 0.918519V1.81751H71.2447V2.65302H69.8189V3.62766H71.4311V4.49491H68.7537V0.0512695H71.4311V0.918519H69.8189Z" fill="white"/>
</svg>
