<svg width="18" height="19" viewBox="0 0 18 19" fill="none" xmlns="http://www.w3.org/2000/svg">
<path fill-rule="evenodd" clip-rule="evenodd" d="M14.9375 4.68506C15.5639 4.85346 16.0594 5.34929 16.2277 5.97609C16.5362 7.11743 16.5455 9.48431 16.5455 9.48431C16.5455 9.48431 16.5455 11.8605 16.237 12.9925C16.0687 13.6193 15.5732 14.1152 14.9469 14.2836C13.8157 14.5923 9.26283 14.5923 9.26283 14.5923C9.26283 14.5923 4.70999 14.5923 3.57879 14.2836C2.95242 14.1152 2.45694 13.6193 2.28866 12.9925C1.98015 11.8512 1.98015 9.48431 1.98015 9.48431C1.98015 9.48431 1.98015 7.11743 2.27931 5.98545C2.44759 5.35864 2.94307 4.86282 3.56944 4.69442C4.70064 4.3857 9.25348 4.37634 9.25348 4.37634C9.25348 4.37634 13.8063 4.37634 14.9375 4.68506ZM11.5813 9.48431L7.80442 11.6734V7.29518L11.5813 9.48431Z" fill="white"/>
</svg>
